/* XPM */
static char *_a0377d49c61456ea57cf9f231dc24bco9xJMrpwmISZyqxW[] = {
/* columns rows colors chars-per-pixel */
"16 16 9 1 ",
"  c None",
". c #6B3B38",
"X c #733E39",
"o c #BE4A2F",
"O c #AB4530",
"+ c #B34831",
"@ c #B86F50",
"# c #C28569",
"$ c #C78C6F",
/* pixels */
"                ",
"  X...........  ",
" X@####$@#@...X ",
"X@#@$####@#@XXXX",
"o#@###@###$@oooX",
"o#######@##@ooOX",
" @##@$#$##@OOOX ",
" @$######@@OOOX ",
" @@###@###@OooX ",
" @#######@@oooX ",
" @##$#####@oo+X ",
" @#@###$##@oooX ",
" @#$##@#@#@oOoX ",
" @@##@####@oooX ",
" @####$##@@OoOX ",
"  @@@@@@@@OOOX  "
};
