/* XPM */
static char *bread_resized[] = {
/* columns rows colors chars-per-pixel */
"64 64 95 2 ",
"   c None",
".  c #663735",
"X  c #673836",
"o  c #6A3A37",
"O  c #6C3C39",
"+  c #7C3E37",
"@  c #733E39",
"#  c #7B3F38",
"$  c #76443D",
"%  c #7C423A",
"&  c #7E483E",
"*  c #8B3F34",
"=  c #844036",
"-  c #8C4235",
";  c #83463C",
":  c #844A3F",
">  c #884C3F",
",  c #944234",
"<  c #9C4433",
"1  c #94493A",
"2  c #9F533F",
"3  c #AC442F",
"4  c #B4472F",
"5  c #BA472D",
"6  c #B6482F",
"7  c #BD492F",
"8  c #A34532",
"9  c #AC4630",
"0  c #A64B37",
"q  c #AD4B34",
"w  c #A54D39",
"e  c #B14730",
"r  c #B44931",
"t  c #BC4E33",
"y  c #AF533B",
"u  c #B55036",
"i  c #BF5236",
"p  c #B2553B",
"a  c #BC573A",
"s  c #B1583F",
"d  c #BD583A",
"f  c #C0472B",
"g  c #C14A2F",
"h  c #C04F33",
"j  c #C15237",
"k  c #864E41",
"l  c #894E40",
"z  c #875043",
"x  c #8B5245",
"c  c #8A554A",
"v  c #925443",
"b  c #9E5542",
"n  c #965845",
"m  c #995945",
"M  c #9C5D49",
"N  c #A25D46",
"B  c #AB5C44",
"V  c #A25E48",
"C  c #B35E43",
"Z  c #BB5E43",
"A  c #9E614D",
"S  c #9F6451",
"D  c #A3614B",
"F  c #AB634B",
"G  c #B56145",
"H  c #BA6143",
"J  c #B56548",
"K  c #BC6448",
"L  c #B76C4E",
"P  c #B86B4D",
"I  c #A06653",
"U  c #A16956",
"Y  c #AD6A50",
"T  c #A36C59",
"R  c #B06C51",
"E  c #B86F50",
"W  c #B57256",
"Q  c #BA7354",
"!  c #B4745A",
"~  c #BC7759",
"^  c #B5785F",
"/  c #BD7A5C",
"(  c #B67B62",
")  c #BF7E61",
"_  c #C05F44",
"`  c #C16044",
"'  c #C16F53",
"]  c #C27054",
"[  c #C07D5E",
"{  c #C17E61",
"}  c #BF8063",
"|  c #C18266",
" . c #C28569",
".. c #C5896C",
"X. c #C88C6E",
/* pixels */
"                                                                                                                                ",
"                                                                                                                                ",
"                                                                                                                                ",
"                                                                                                                                ",
"                  @ o o o o . . X X X X X X X X O X X X X X X X X X X X O X X X . X X X X O O O O O O X O O X                   ",
"                @ @ @ @ O O O o X $ X O X O X X O O O $ O X O O O O X X O O O O O O O O O O X O O O O O X O O O                 ",
"                % & % & $ $ $ $ $ $ $ $ $ $ O $ $ $ $ $ $ $ $ $ $ $ $ $ $ $ $ $ $ $ O $ $ X O X O X O X $ O X O                 ",
"              ; > > x x c c c c c c c c c c c c c c c c c c c c z z z z c c c c > : : $ $ O O X X O O O X X O O $               ",
"          @ % : v m M D S I U U T T T U U U T T T T T T T T U S S M M A S S U I M M v k % O X X o o o O o O O O O O @           ",
"        @ @ $ k m D Y E ^ ( ( ( ( } ( ( ( ( ( ( ( ( ( } } } ( ~ T R R R ! ( ( ! W Y D n : $ O O o O O o o O O O O @ @ $         ",
"        % % k v V R Q / { { | | } X...} } ..} ..} } } X.X.X...{ ~ Q W ) ~ { { { ~ ~ R V x : $ $ O O O O O O O O @ @ @ @         ",
"      & : k v M Y Q / [ { { | | X.} X.X...} ....X.} } X.X.X... .{ ) ) ] [ { { { { / W Y M x & % $ $ O o O O O O O @ @ @ @       ",
"o O $ : x m D Y W / { [ [ / [ { } X.X.X.X.X.} X.} X.X.} ........ .{ { ) ) ~ ~ [ [ { / W Y A n x $ $ O o o O O @ @ O @ @ @ @ @ @ ",
"@ @ & l m D L W / ) | [ ~ Q ~ / } ..X.X.X.} X.X.} X.} X. . . . ...{ ) ) ~ ~ ~ ~ ) { ) / ~ Y D n : % @ O @ @ @ @ @ @ @ @ @ @ @ @ ",
"+ % ; 1 V L Q / ) } | / ~ ~ ~ [ } X.....X.} X.} } } } X. . . . ... .{ ) ~ ~ E ) ) | | { / E J M 1 ; % + + # # % % + % + @ @ @ @ ",
"* , 1 m F W / { / ) / / ~ ~ / / } ..........} } } } } } }  . . . . . .{ ) ~ ~ { | .. .| / ~ L B w 1 - - - , - , - , - = % # @ @ ",
"8 8 w B L Q { { / / ~ / / / ) | |  ..... . .| } ) ~ ~ / ) |  . . ... .| } } } |  . . .| / Q L G B 0 8 8 8 8 8 8 0 8 < - = % $ O ",
"4 e u Z E { ) ) / W Q ~ ) } |  . . . . . . .| ) ~ Q ~ ~ ) |  . .}  . . .| | | } X.X. .| / Q J Z p u 4 4 6 6 r 6 6 4 q < - % @ O ",
"5 7 i _ ] { { ) / ~ ~ / ) |  . . . . . . . .| ) ~ ~ ~ / ) |  . . .} | | | ............| / Q P H a i 7 7 g 7 7 7 7 6 6 < - % @ O ",
"f g j _ ] {  .{ ) ~ ~ ) ) |  . . . . . . . .| ) ) ~ ~ ) ) |  .} } } } } } | | ........| / ~ P H a j g g g g g g g 7 6 < - % @ @ ",
"g g j _ ] {  . .} } } } } |  . . . . . . . .| } ) ) ) ) }  .| } / / / / } | ........ .| / ~ P Z d t g f g g g 7 7 6 3 < - + @ @ ",
"5 t i _ ] { {  . .} }  . . . . . . . . . . . . . .| }  . . .| ) / / Q / / |  ..... .| } ~ E P Z d t 7 7 g g 7 6 6 3 3 , = + @ O ",
"g 5 i _ ] {  . . . . . . . . . .| | | |  . . . . . . . . . . .) / Q Q / } |  . . .| } / Q E J Z a t 7 7 7 7 6 4 9 3 < , = + @ @ ",
"f g i Z ] ( ) ) }  . . . . . .} ) ) ) }  . . ... . . ... ... .} / / / / |  .| | | / / Q E G C C u 6 6 6 5 6 4 9 < < - = * % @ @ ",
"      K E ~ ~ { { |  . . . .| ) ) ~ / ) | ........ . ......... .} } } } | |  .} ) / Q L C C q q r r e 4 4 4 3 8 , - = = %       ",
"        L Q ~ ~ { |  . . . .| ) ~ ~ ~ / | ...... . . ........... .| | |  . .| } / Q L J C q q 9 9 9 9 e 4 3 8 < - = @ %         ",
"        E E Q ~ ) |  ... . .| ) ~ ~ ~ / | ........ . . ...X....... . . .| | } / ~ Q L G y q 9 3 9 9 3 3 3 9 8 < = + @ @         ",
"        L E Q ~ {  . ..... .| ) / ~ / / | ...... . . ............. .| | } } / / Q Q J C y q 9 3 3 9 8 3 9 9 8 * = % @ O         ",
"        E E Q ~ |  ....... .| | { ) ) }  . . ... . . . ....... . ...| } / / Q Q Q L J C y q 3 3 3 3 9 3 3 9 8 , = # @ O         ",
"        E E Q ~ { ........ . .| | | | |  . . . . . . . . . . . . . .| } / / Q Q Q E L C y q 9 3 3 8 9 9 9 9 8 , = @ % O         ",
"        E E E ~ {  ....... . . . . . . . . .|  . .| | |  . . . . . .| } / Q Q Q E E L G y q 9 3 3 9 9 3 4 9 9 , - # @ @         ",
"        E E Q ~ / { | | |  . . . . . . . . . .} ) ) ) ) }  .|  . . . .} / / Q Q Q E L C y q 9 3 3 e e 4 r 9 9 , - # @ @         ",
"        L Q Q Q Q / / ) }  . . ... . . . . .| } } / / / }  . . . . . .} | } / / Q Q P C y q 3 e 4 6 6 5 5 6 e < - % @ O         ",
"        E L L L Q Q ~ / )  .}  . . . . . .| | } ~ Q Q / } }  . . . . .}  .} } / ~ Q J G y q 3 e 4 6 5 7 7 7 6 < - % O $         ",
"        E E E Q E Q Q / ) |  . .} .. . . . .| } ~ Q Q / } }  . . . . . . .| | / ~ Q P C y q 9 4 6 7 t g g t 6 8 - % % O         ",
"        L E E Q Q Q ~ ) } |  . ...} |  . . .| } / / / / } |  . . . .}  .} } / / Q E P G p u 6 6 5 7 g g g 6 6 0 - % @ O         ",
"        E E Q Q ~ / ) ) }  . . ...} ..}  . .| | } } } } | |  . . . .| } / / Q Q Q E P G p t 5 5 7 7 g g g g 6 < - # % O         ",
"        L E Q Q / | |  . . . . .} ..} .. . . .| | | | | |  . . ... .| } / / Q Q E E P H a i 6 7 7 7 7 g g 7 6 8 - % @ @         ",
"        E E Q ~ ) |  . . . . . .X.} ..}  . . . . . .|  . . .|  . .}  .} / Q Q Q E E P H a i g 7 7 7 g g g t 6 < - % @ O         ",
"        L E Q ~ / |  . . . . . .} } X.X. . . . . . . . . . . . . ...} } / / Q Q Q E P H a t 7 7 g 7 7 7 7 6 6 < - + @ @         ",
"        E L Q ~ ) }  ... . . ...X.X.X.X.} X.} X. . . . . .|  . . .} ..} } } } } ( Q L Z a i 7 g g 7 7 7 t 6 q < - % @ @         ",
"        L Q Q ~ ) |  . . . . ...} X.X.X.X.} X.}  . . . . . . . .} ..} ..} } } } ( W J H a 7 7 7 7 g 7 7 7 r 9 < - + @ O         ",
"        L E Q Q / |  . .}  .|  .X.X.X.} X.} X.}  . . . . .|  .| X.} ..} X.} } } / Q L H a i 7 f 7 g 7 7 6 6 9 < - # @ @         ",
"        L E Q / ) | | | } } ) } } X.} X.X.X.} X. . . . .........} X.} ..X.X.} } ~ Q P H a i g 7 g 7 7 g t 6 q < - # @ O         ",
"        E E Q ~ ) | | } / / ( ( }  ... .} } .... . . . . ...X. .X.} X.} } X.} } / Q P H d i 7 g 7 7 g 7 t 5 e < - # @ O         ",
"        L E Q / ) | | ) / Q ! ( } }  ...X.....} |  . .X.....X.X.X.} } X.X.} } } Q Q L H a t 7 g g 7 7 g f t e 8 , % @ @         ",
"        P E Q Q ) } | } / Q ( ( } }  . .....} ..| | |  ...X.X. .} X.} } } } } } / Q J H a 6 7 7 7 7 7 7 7 7 r 8 - % @ O         ",
"        E E Q / ) |  .} } / } } } } ..} ..} ..} } } } }  . .X.| } } } } } X.} } / Q J H a i 7 7 6 6 6 7 5 t r 8 , # $ O         ",
"        E E Q / / | ..| | | | |  . . . . . .| } } ~ ~ } |  .| | } / / / } | | } / E P Z d t 7 7 5 e e 6 7 t r 8 * * @ @         ",
"        L E Q Q } } | ...... . . . . . . . .} } [ E Q [ } | | } / Q Q / } | } } ~ Q P Z d t 7 6 e e e 6 6 7 r 8 - # @ O         ",
"        E E Q Q / } |  .....X... . . . .| } } ~ ~ Q Q ~ } |  .} / Q Q / } | } } / Q P Z d t 6 6 e e e e 6 7 e 8 - # @ @         ",
"        L E Q Q / / } |  ......... .| } } } } [ ~ ~ ~ } }  .} } / / / } | | | } ~ Q P Z Z t 7 5 5 e e 7 7 t r 8 - # @ @         ",
"        Q L Q E Q ~ ~ } |  ....... .| } ~ } ~ ~ [ / } } | | | } } } / | } ..} } / Q P Z a t 7 7 5 6 6 7 g 7 r 8 - # @ @         ",
"        Q L E E E Q Q / } |  . . . .| } ~ Q ~ ~ } } | |  . . .| | | | | | ..} } ~ Q P H a t 7 7 7 7 7 7 g 7 e 8 - % @ @         ",
"        L E E E E Q Q / } |  . . . .| } ~ ~ ~ ~ } |  . . . . . ...| ..|  .} } / / Q P Z a t 7 5 7 7 7 7 7 7 r 8 - % @ @         ",
"        E E E Q Q ~ / / | |  ... . .| } } ~ ~ } }  ..... . . ...}  ...| } } / / Q Q J H a u 6 5 5 g g g 7 6 e < - # @ O         ",
"        L L Q Q ~ / | | | .. ... . . .| } } } | X.} X...X.} ..} .... .} ) / / Q Q E E Z C q e 5 5 7 7 7 7 e q < - # @ @         ",
"        L Q Q Q / | | | | |  .|  .| | | | | |  .} X.....X.X.} ....} } ) / Q Q Q E E J C p q e e 5 7 7 7 5 e 8 < * # @ @         ",
"        E Q Q Q / | | | | | } | } } } } | } | | X...X...} } } } } } } / Q Q L L E L C C y q e e r 6 6 r 9 8 8 * = # @ @         ",
"          L Q / / / } / } / } / } } } } } } } } } } } } } } / } } ) ) / W Q L L C C C C q q 9 e e e r e 9 * * * * @ @           ",
"              Q Q ~ ~ ~ / Q / ~ ~ ~ ~ ~ ~ ~ ~ ~ } / ~ / ~ ~ ~ ~ ~ ~ ~ Q Q E P J C C q q q 9 3 e e e 9 8 , - * # #               ",
"                Q Q Q Q Q Q Q Q Q Q Q E Q Q Q Q Q Q Q Q Q Q Q Q Q Q Q Q Q L P G C q q 9 9 9 9 9 e e 9 * - # # $                 ",
"                E E E E E E L E E E E E E E E E E E E E E E E E E E E E Q L L C B 9 3 3 3 9 9 9 e 9 3 * * @ @ @                 ",
"                E E L E E L E L L E L E L E E L E L L L L L L E L P L E E L L C y 9 3 3 8 3 9 9 9 9 9 * * $ @ @                 "
};
