/* XPM */
static char *ddc1b0b7f3a84becf680d5d84191237aFxSn6WVYZSb2tRlV[] = {
/* columns rows colors chars-per-pixel */
"64 64 51 1 ",
"  c black",
". c #111011",
"X c #171617",
"o c #211F21",
"O c #D1D123",
"+ c #D7D726",
"@ c #D9D929",
"# c #DADA28",
"$ c #DDDD2B",
"% c #E5E530",
"& c #EAEA34",
"* c #F0F038",
"= c #B8B87D",
"- c #00B7EF",
"; c #959196",
": c #949097",
"> c #979197",
", c #969398",
"< c #97949B",
"1 c #989399",
"2 c #98939B",
"3 c #999599",
"4 c #9B969B",
"5 c #9B979E",
"6 c #9C979D",
"7 c #9C989D",
"8 c #9E989F",
"9 c #9E9A9F",
"0 c #9F9A9F",
"q c #9C98A0",
"w c #9E99A0",
"e c #9F9BA2",
"r c #A09BA0",
"t c #A19DA2",
"y c #A19CA4",
"u c #A29DA4",
"i c #A39FA5",
"p c #A49EA6",
"a c #A3A0A5",
"s c #A5A0A6",
"d c #A6A1A7",
"f c #A7A3AA",
"g c #A8A3A9",
"h c #AAA6AB",
"j c #ABA5AD",
"k c #ABA6AC",
"l c #ADA9AF",
"z c #AEA8B0",
"x c #B1ACB3",
"c c #F5F4F5",
"v c white",
/* pixels */
"                                vvvvvvvvvvvvvvvvvvvvvvvvvvvvvvvv",
"                                vvvvvvvvvvvvvvvvvvvvvvvvvvvvvvvv",
"                                vvvvvvvvvvvvvvvvvvvvvvvvvvvvvvvv",
"                                vvvvvvvvvvvvvvvvvvvvvvvvvvvvvvvv",
"                                vvvvvvvvvvvvvvvvvvvvvvvvvvvvvvvv",
"                                vvvvvvvvvvvvvvvvvvvvvvvvvvvvvvvv",
"                                vvvvvvvvvvvvvvvvvvvvvvvvvvvvvvvv",
"                                vvvvvvvvvvvvvvvvvvvvvvvvvvvvvvvv",
"                                vvvvvvvvvvvvvvvvvvvvvvvvvvvvvvvv",
"                                vvvvvvvvvvvvvvvvvvvvvvvvvvvvvvvv",
"                                vvvvvvvvvvvvvvvvvvvvvvvvvvvvvvvv",
"                                vvvvvvvvvvvvvvvvvvvvvvvvvvvvvvvv",
"                                vvvvvvvvvvvvvvvvvvvvvvvvvvvvvvvv",
"                                vvvvvvvvvvvvvvvvvvvvvvvvvvvvvvvv",
"                                 vvvvvvvvvvvvvvvvvvvvvvvvvvvvvvv",
"                             ***    vvvvvvvvvvvvvvvvvvvvvvvvvvvv",
"                          *********    vvvvvvvvvvvvvvvvvvvvvvvvv",
"                       ********&******    vvvvvvvvvvvvvvvvvvvvvv",
"                    ==*********+&********    vvvvvvvvvvvvvvvvvvv",
"                    **====*****O$***********    vvvvvvvvvvvvvvvv",
"                    ******====*****************   vvvvvvvvvvvvvv",
"                 xxx**********===****************   vvvvvvvvvvvv",
"                xxxx****  *******====*********==*xx   vvvvvvvvvv",
"               xxxxx*&%* v***********==*****==***xxxx  vvvvvvvvv",
"              xxxxxx*#O**-****************==****&xxxxx  vvvvvvvv",
"             xxxxxxx*$***-***********************xxxxxx  vvvvvvv",
"            xhhlhjxx*$**-************  ***=***&**xxxxxxx  vvvvvv",
"     X    .xxxxxxxlx****-************ v***=**&$&*xxlhjhlz  vvvvv",
"   X     zlzxjpdgljx&&****************-***=**$&$*xxxxxxxzx  vvvv",
"  XX    xxfjyiidipfx*********    *****-***=**&@**hhdtipzjxx  vvv",
"       xzzxhpiepixxxxxx***** ****  ***&&&*=**$$**hiiiiedfxxx  vv",
"     xxxzxii8ljigpzhxxxxxxx***********$#$*=*****xiy55iixxxzxx vv",
"vv  xxxxxxzdhlhptiflxxzxxxxxxxxx*******$**=****p5310788djfxxx   ",
"vv xxxxxllhhttpdwdijhzzxxxxxxxxxxxxxx*****=**lxhp5yt9daaflxx.   ",
"vvX xxxxfpxjizd,,3ifxxxxxxxxxxxxxxxxxxxxl***ypy530558988ihf..   ",
"vvv  xxxxlxpiyf,35jlxxxxxxxxxxxlzlllljxxlxxxgg1;83;>3,3tifl     ",
"vvvv   xxxxpjdp85qzxxxxxxxxxxxxlllllhhzzfpp8y555;,351540aj.     ",
"vvvvvc    xlzzhlzzxxxxxxxxxxxxxllllhhahe55>1>,,,3,1,350szx      ",
"vvvvvvvvv     xxxxxxxxxxxxxxxxxllllhhdi8y54;,>:,,,,:5ypgzx      ",
"vvvvvvvvvvvvv.   xxxxxxxxxxxxxxlllldh87803151;:>1,,y5pshz       ",
"vvvvvvvvvvvvvvvv     xxxxxxxxxxllllhhdtda33;,:,1;3;53alzx       ",
"vvvvvvvvvvvvvvvvvvvv    xxxxxxxllllddaa7783,,,,>,,;7izxj        ",
"vvvvvvvvvvvvvvvvvvvvvvv     xxxxxxzdah8ri7,,3,;;1138pijj        ",
"vvvvvvvvvvvvvvvvvvvvvvvvvvv    xxxxlhhe88,,73,33,;85txx         ",
"vvvvvvvvvvvvvvvvvvvvvvvvvvvvvv    xxxldft888,3;e,wypjxx         ",
"vvvvvvvvvvvvvvvvvvvvvvvvvvvvvvvv     xzzlajf5d78fwxzxx          ",
"vvvvvvvvvvvvvvvvvvvvvvvvvvvvvvvv        xxxxjjjtllgxxx          ",
"vvvvvvvvvvvvvvvvvvvvvvvvvvvvvvvv        .  zxxxxxxxxx           ",
"vvvvvvvvvvvvvvvvvvvvvvvvvvvvvvvv              oxxxxxx           ",
"vvvvvvvvvvvvvvvvvvvvvvvvvvvvvvvv                                ",
"vvvvvvvvvvvvvvvvvvvvvvvvvvvvvvvv                                ",
"vvvvvvvvvvvvvvvvvvvvvvvvvvvvvvvv                                ",
"vvvvvvvvvvvvvvvvvvvvvvvvvvvvvvvv                                ",
"vvvvvvvvvvvvvvvvvvvvvvvvvvvvvvvv                                ",
"vvvvvvvvvvvvvvvvvvvvvvvvvvvvvvvv                                ",
"vvvvvvvvvvvvvvvvvvvvvvvvvvvvvvvv                                ",
"vvvvvvvvvvvvvvvvvvvvvvvvvvvvvvvv                                ",
"vvvvvvvvvvvvvvvvvvvvvvvvvvvvvvvv                                ",
"vvvvvvvvvvvvvvvvvvvvvvvvvvvvvvvv                                ",
"vvvvvvvvvvvvvvvvvvvvvvvvvvvvvvvv                                ",
"vvvvvvvvvvvvvvvvvvvvvvvvvvvvvvvv                                ",
"vvvvvvvvvvvvvvvvvvvvvvvvvvvvvvvv                                ",
"vvvvvvvvvvvvvvvvvvvvvvvvvvvvvvvv                                ",
"vvvvvvvvvvvvvvvvvvvvvvvvvvvvvvvv                                "
};
