/* XPM */
static char *c7c2b546c6444266ab1fbe81bf76f8faaQRMYBeOePKtojgv[] = {
/* columns rows colors chars-per-pixel */
"64 64 64 1 ",
"  c black",
". c #302917",
"X c #332D1D",
"o c #071534",
"O c #081536",
"+ c #0C193A",
"@ c #111E3D",
"# c #072434",
"$ c #22252C",
"% c #352F21",
"& c #363023",
"* c #393324",
"= c #3C362A",
"- c #3E3A2C",
"; c #413C2D",
": c #413C31",
"> c #464031",
", c #4A4336",
"< c #47423C",
"1 c #49443B",
"2 c #4C4939",
"3 c #061455",
"4 c #444344",
"5 c #4B4642",
"6 c #4E4A45",
"7 c #524E4A",
"8 c #535043",
"9 c #53514C",
"0 c #5A554D",
"q c #575452",
"w c #5B5653",
"e c #5D5B56",
"r c #5D5B5D",
"t c #625D55",
"y c #645F5B",
"u c #636056",
"i c #65635E",
"p c #69665E",
"a c #615E61",
"s c #646264",
"d c #6A6661",
"f c #6E6964",
"g c #696668",
"h c #6C6B6B",
"j c #726E6B",
"k c #75726D",
"l c #706D70",
"z c #757374",
"x c #797672",
"c c #797874",
"v c #797779",
"b c #7C7A7B",
"n c #DB0909",
"m c #807E7D",
"M c #83807F",
"N c #817E80",
"B c #838282",
"V c #888686",
"C c #8A8789",
"Z c #8C8B8C",
"A c #908D8F",
"S c #918F91",
"D c #919191",
"F c white",
/* pixels */
"                                FFFFFFFFFFFFFFFFFFFFFFFFFFFFFFFF",
"                                FFFFFFFFFFFFFFFFFFFFFFFFFFFFFFFF",
"                                FFFFFFFFFFFFFFFFFFFFFFFFFFFFFFFF",
"                                FFFFFFFFFFFFFFFFFFFFFFFFFFFFFFFF",
"                                FFFFFFFFFFFFFFFFFFFFFFFFFFFFFFFF",
"                                FFFFFFFFFFFFFFFFFFFFFFFFFFFFFFFF",
"                OOOOOOOOOOOOOOOOOOOOOOOOOOOOooOFFFFFFFFFFFFFFFFF",
"                OOOOOOOOOOOOOOOOOOOOOOOOOOOOOOOFFFFFFFFFFFFFFFFF",
"               OOOOa4asas4aa4saa4aa4aaaa4aaa4OOoFFFFFFFFFFFFFFFF",
"             OOSOOa44444444444a4aa4aaaaa4sa44oOBOFFFFFFFFFFFFFFF",
"          OOODNOOaa4sa4aaas4aa44444444444aa4oomNNOOFFFFFFFFFFFFF",
"         OSNzzvOOa4aa4aaaa4aa4aas4asas44as4OomBBNDAOFFFFFFFFFFFF",
"         OSvhhOOOOOOOO+@3@++++OOOOaaa4aaa4OONBNNDADNOFFFFFFFFFFF",
"       OOOOOOOOOSSSSSSgzxDiDgDBASSOOOOOOOOOBNmNAADNNNOFFFFFFFFFF",
"       OOSDDzSDDSSSCV;=-=7iBrrsMSSSSDSSSDSOONmDDDBBNADOOOFFFFFFF",
"       OODDzsSSSSSSCV:;-=jyZv0>2jASSSSSSfSOONBDDmmNeDAOOOFFFFFFF",
"       OOSmshSSSSSDZZf;=-V5CZbpuhSSSASSStSSSOODNBmh8DDDDB#FFFFFF",
"     OOSSSvhASSSSDAwbm***CjVZxVxjDSSDDSSDSSSADONBDdDDBbBNoFFFFFF",
"     OOSSSAAkSSSSSSw6t***VCb5pxpZDSSSSSSSSSSDDONZDDDDbBmNNoFFFFF",
"    OSSSSDDV8DSSSSSSSZi0qzCy5x->ZDSSSSSSSSSSDAOSDDDBBmBmNDoFFFFF",
"    OSSSSSStiSSZSASSDSAZSivzragCMDA4SSSSSSSSDSZOzDhhhhBBNDDOFFFF",
"    OSSSNSStSSS4S4SSSSSSDdXvvbNAVA<4SSSSSSSDCSSOsNsssirDDSSOFFFF",
"    OSzDvSStSSS4S4SSSSSSSdXvvvNABZ44SSSSSSSSZSSOgBasqreDSSDOFFFF",
"    OShSNSSSSSS4444SSSSSDZZvBBVS444ZDSSSSSAZCSlOlBss:eczzSZoFFFF",
"    OSSSbSSSSSSOo44-SSSSSzzX6aN44-OOAADASSSSlSSSoNNN8>77hSSOFFFF",
"    OSSSSSSSSSOFFFO4SSSSSNvbBmZ44FFFODSDSSSjASaDONNSD816zzNOFFFF",
"    OSSSjSSSSSOFnFOSSDSSADADDDBSOFnFOSSSSDAZjNrrOCzSADSShhvOFFFF",
"    OSSjdSSCAAOFFFOSSSSDDDDDDZNSOFFFOSSSSSZ.ZzaroVgSSSSSSSSOFFFF",
"    OSSgSZSSSSS+oOSSSSSAAvfADZZSSOOOSSSSSDV,D<rrODvDSSOO$rSOFFFF",
"    OSNNNNNvSNZSSASSSSSBVZMZVMSSSSSSSDSSSSzzC56AODSDOOOO1-SOFFFF",
"    OSSsaaSlSSASSSSSSSSSDAZMMMZDSSSSSSSSSSDAp*hDOSSOODDDs-SOFFFF",
"    OSssalaaaNNNSSSSSSSDDZMVCDDtSSSSSAZZSSSDDDbSOCSSAOOOh7ZoFFFF",
"FFFFOSAllw;5wm7SSSSDSSSSDDAVVDZZSSSSZSBVBSSSSSSSOSSSSOSSSsSO    ",
"FFFFOSSya4%;:yaSSSSSSSSSSADSAxkhSSSCNZllCSZSSSSSOSSSSOOOSsSO    ",
"FFFFOAAANa5%rvaSSSSSSSDSSDADDDSSSDSVgSbbsSCNSSSSOSSSSOSSSgSO    ",
"FFFF+aNSSSalaSSSSSSSSSOOOOOOOOSSSSSlNSBBNZSvSSSSOSSSSOOOSvSO    ",
"FFFFOAlNNNNvSSSSSSSSSOSSSSSSSSOSSSSzSCvvZNagBSZSOSSSSOSSSSSO    ",
"FFFFOAAASzNgaaaSSSSOOSSSSSSSSSOSSSSSCZBBrrrrCSCSOSSSSOOOSSSO    ",
"FFFFOASSSlNlaaaSSSSOOSDDSSSSSSOSSSSSCCBBrrrrBSBSOSSSSOOOSSSO    ",
"FFFF3SSSSSSASllSSSSSSSSCCVSSSSSSSSDZlCrr=&4rShVZOSSSSOSSDSSO    ",
"FFFFOAAASSSSSSSSSSSSSZVSASDSSSSSSSlBZN55.%=4ralBODADSOOOSNSO    ",
"FFFFOASSDSSSSSSSSSSSZNChlsSZVSSSSSsshlrr==X=NvaCOe7ASODSzhSO    ",
"FFFFOSSSSSSSSSSSSSSSSlaSSSSSSSSSSSSsa=:-%w%.SZaSO--zSOOOhhAO    ",
"FFFFOSSSSSSSSSSSSSSSlsSrrrlsZBSSSSSSf%rr==%rASaSO-<5SODDrSDO    ",
"FFFFOSSSSSSSSSSSSSSSSSr==yalsSSSSSSSSS44ghrqNBSSO9z9zzDzqSSO    ",
"FFFFOSSSSzlSSSSSSSSSSr5yuBrrsSSSSSSSSsssSNrrVhlSOasrssAhqSSO    ",
"FFFFOSSSShaNzSSSSSSSZV5zzbrASSSSSSSSSbSSSVraVasSODhhgsSSdDSO    ",
"FFFFOSSSSShvgSSSSSSSZSSvvzZVSSSSSSSSSSSSVvaVaasSODDAvgSSSDOO    ",
"FFFFOADSSSDDvSSSSSSDSNZVBZSSSSSSSSSSSSSSSSVSssSSOADASSSSDOOO    ",
"FFFFODDSSSADSSSSSSSSDDDZZZVNsSSSSSSSDSSSSSSSSSSSODADSOOOOOOO    ",
"FFFFoooooooOOOOOSSSSDSSDSSSSSSSSSSSSSSSSSSSSSSSSOSDOOOOOOOOO    ",
"FFFFooooooOOFFFFOOOOOOOOOOOOOOOOOOOOOSSSSSSSSSSSOOOOOOOOOOOO    ",
"FFFFO3ooO#OFFFFFFFFFFFFFFFFFFFFF     OOOOOOOOOOOOOOOO     OO    ",
"FFFFO3oOO#OFFFFFFFFFFFFFFFFFFFFF     OOOOOOOOOOOOOOOO     OO    ",
"FFFFOOoOOOFFFFFFFFFFFFFFFFFFFFFF           OOOOOOOOO            ",
"FFFFOOOOOFFFFFFFFFFFFFFFFFFFFFFF            OOOOOOOO            ",
"FFFFFFFFFFFFFFFFFFFFFFFFFFFFFFFF             OOOOOOO            ",
"FFFFFFFFFFFFFFFFFFFFFFFFFFFFFFFF              OOOOO             ",
"FFFFFFFFFFFFFFFFFFFFFFFFFFFFFFFF               OOO              ",
"FFFFFFFFFFFFFFFFFFFFFFFFFFFFFFFF                                ",
"FFFFFFFFFFFFFFFFFFFFFFFFFFFFFFFF                                ",
"FFFFFFFFFFFFFFFFFFFFFFFFFFFFFFFF                                ",
"FFFFFFFFFFFFFFFFFFFFFFFFFFFFFFFF                                ",
"FFFFFFFFFFFFFFFFFFFFFFFFFFFFFFFF                                "
};
