/* XPM */
static char *_8834770af8943a7d7c73342c6ada07edcvtv2uQ9ZyomRZS[] = {
/* columns rows colors chars-per-pixel */
"64 64 4 1 ",
"  c black",
". c gray16",
"X c #BAB3BA",
"o c white",
/* pixels */
"                                oooooooooooooooooooooooooooooooo",
"                                oooooooooooooooooooooooooooooooo",
"                                oooooooooooooooooooooooooooooooo",
"                ...............................ooooooooooooooooo",
"               .XXXXXXXXXXXXXXXXXXXXXXXXXXXXXXX.oooooooooooooooo",
"               .XXXXXXXXXXXXXXXXXXXXXXXXXXXXXXX.oooooooooooooooo",
"               .XXXXXXXXXXXXXXXXXXXXXXXXXXXXXXX.oooooooooooooooo",
"               .XXXXXXXXXXXXXXXXXXXXXXXXXXXXXXX.oooooooooooooooo",
"               .X..XXXXXXXXXXXXXXXXXXXXXXXXXXXX.oooooooooooooooo",
"               .XX.XXXXXXXXXXXXXXXXXXXXXXXXXXXX.oooooooooooooooo",
"               .XX.XXXXXXXXXXXXXXXXXXXXXXXXXXXX.oooooooooooooooo",
"               .XX.XXXXXXXXXXXXXXXXXXXXXXXXXXXX.oooooooooooooooo",
"               .XX.XXXXXXXXXXXXXXXXXXXXXXXXXXXX.oooooooooooooooo",
"               .XX.XXXXXXXXXXXXXXXXXXXXXXXXXXXX.oooooooooooooooo",
"               .X..XXXXXXXXXXXXXXXXXXXXXXXXXXXX.oooooooooooooooo",
"               .XXXXXXXXXXXXXXXXXXXXXXXXXXXXXXX.oooooooooooooooo",
"               .XXXXXXXXXXXXXXXXXXXXXXXXXXXXXXX.oooooooooooooooo",
"               .XXXXXXXXXXXXXXXXXXXXXXXXXXXXXXX.oooooooooooooooo",
"               .XXXXXXXXXXXXXXXXXXXXXXXXXXXXXXX.oooooooooooooooo",
"               .................................oooooooooooooooo",
"               .XXXXXXXXXXXXXXXXXXXXXXXXXXXXXXX.oooooooooooooooo",
"               .XXXXXXXXXXXXXXXXXXXXXXXXXXXXXXX.oooooooooooooooo",
"               .X..XXXXXXXXXXXXXXXXXXXXXXXXXXXX.oooooooooooooooo",
"               .XX.XXXXXXXXXXXXXXXXXXXXXXXXXXXX.oooooooooooooooo",
"               .XX.XXXXXXXXXXXXXXXXXXXXXXXXXXXX.oooooooooooooooo",
"               .XX.XXXXXXXXXXXXXXXXXXXXXXXXXXXX.oooooooooooooooo",
"               .XX.XXXXXXXXXXXXXXXXXXXXXXXXXXXX.oooooooooooooooo",
"               .XX.XXXXXXXXXXXXXXXXXXXXXXXXXXXX.oooooooooooooooo",
"               .XX.XXXXXXXXXXXXXXXXXXXXXXXXXXXX.oooooooooooooooo",
"               .XX.XXXXXXXXXXXXXXXXXXXXXXXXXXXX.oooooooooooooooo",
"               .XX.XXXXXXXXXXXXXXXXXXXXXXXXXXXX.oooooooooooooooo",
"               .X..XXXXXXXXXXXXXXXXXXXXXXXXXXXX.oooooooooooooooo",
"ooooooooooooooo.XXXXXXXXXXXXXXXXXXXXXXXXXXXXXXX.                ",
"ooooooooooooooo.XXXXXXXXXXXXXXXXXXXXXXXXXXXXXXX.                ",
"ooooooooooooooo.XXXXXXXXXXXXXXXXXXXXXXXXXXXXXXX.                ",
"ooooooooooooooo.XXXXXXXXXXXXXXXXXXXXXXXXXXXXXXX.                ",
"ooooooooooooooo.XXXXXXXXXXXXXXXXXXXXXXXXXXXXXXX.                ",
"ooooooooooooooo.XXXXXXXXXXXXXXXXXXXXXXXXXXXXXXX.                ",
"ooooooooooooooo.XXXXXXXXXXXXXXXXXXXXXXXXXXXXXXX.                ",
"ooooooooooooooo.XXXXXXXXXXXXXXXXXXXXXXXXXXXXXXX.                ",
"ooooooooooooooo.XXXXXXXXXXXXXXXXXXXXXXXXXXXXXXX.                ",
"ooooooooooooooo.XXXXXXXXXXXXXXXXXXXXXXXXXXXXXXX.                ",
"ooooooooooooooo.XXXXXXXXXXXXXXXXXXXXXXXXXXXXXXX.                ",
"ooooooooooooooo.XXXXXXXXXXXXXXXXXXXXXXXXXXXXXXX.                ",
"ooooooooooooooo.XXXXXXXXXXXXXXXXXXXXXXXXXXXXXXX.                ",
"ooooooooooooooo.XXXXXXXXXXXXXXXXXXXXXXXXXXXXXXX.                ",
"ooooooooooooooo.XXXXXXXXXXXXXXXXXXXXXXXXXXXXXXX.                ",
"ooooooooooooooo.XXXXXXXXXXXXXXXXXXXXXXXXXXXXXXX.                ",
"ooooooooooooooo.XXXXXXXXXXXXXXXXXXXXXXXXXXXXXXX.                ",
"ooooooooooooooo.XXXXXXXXXXXXXXXXXXXXXXXXXXXXXXX.                ",
"ooooooooooooooo.XXXXXXXXXXXXXXXXXXXXXXXXXXXXXXX.                ",
"ooooooooooooooo.XXXXXXXXXXXXXXXXXXXXXXXXXXXXXXX.                ",
"ooooooooooooooo.XXXXXXXXXXXXXXXXXXXXXXXXXXXXXXX.                ",
"ooooooooooooooo.XXXXXXXXXXXXXXXXXXXXXXXXXXXXXXX.                ",
"ooooooooooooooo.XXXXXXXXXXXXXXXXXXXXXXXXXXXXXXX.                ",
"ooooooooooooooo.XXXXXXXXXXXXXXXXXXXXXXXXXXXXXXX.                ",
"ooooooooooooooo.XXXXXXXXXXXXXXXXXXXXXXXXXXXXXXX.                ",
"ooooooooooooooo.XXXXXXXXXXXXXXXXXXXXXXXXXXXXXXX.                ",
"ooooooooooooooo.XXXXXXXXXXXXXXXXXXXXXXXXXXXXXXX.                ",
"ooooooooooooooo.XXXXXXXXXXXXXXXXXXXXXXXXXXXXXXX.                ",
"oooooooooooooooo...............................                 ",
"oooooooooooooooooooo....oooooooo       ....                     ",
"oooooooooooooooooooooooooooooooo                                ",
"oooooooooooooooooooooooooooooooo                                "
};
