/* XPM */
static char *_20575a81db64a6ecb38fa4953578b34W8eI5DIxHRpogGPI[] = {
/* columns rows colors chars-per-pixel */
"64 64 20 1 ",
"  c black",
". c gray16",
"X c #47360B",
"o c #700036",
"O c #DB0303",
"+ c #ED1C24",
"@ c #AD7600",
"# c #128035",
"$ c #22B14C",
"% c #C98D0A",
"& c #FFD500",
"* c #FFF200",
"= c #E5AA7A",
"- c #00B7EF",
"; c #8A878A",
": c #ABA8AB",
"> c gray69",
", c #BAB3BA",
"< c gray81",
"1 c white",
/* pixels */
"                                11111111111111111111111111111111",
"                                11111111111111111111111111111111",
"                                11111111111111111111111111111111",
"                ...............................11111111111111111",
"               .,,,,,,,,,,,,,,,,,,,,,,,,,,,,,,,.1111111111111111",
"               .,,,,,,,,,,,,,,,,,,,,,,,,,,,,,,,.1111111111111111",
"               .,,,,,,,,,,,,,,,,,,,,,,,,,,,,,,,.1111111111111111",
"               .,,,,,,,,,,,,,,,,,,,,,,,,,,,,,,,.1111111111111111",
"               .,..,,,,,,,,,,,,,,,,,,,,,,,,,,,,.1111111111111111",
"               .,,.,,,,,,,,,,,,,,,,,,,,,,,,,,,,.1111111111111111",
"               .,,.,,,,,,,,,,,,,,,,,,,,,,,,,,,,.1111111111111111",
"               .,,.,,,,,,,,,,,,,,,,,,,,,,,,,,,,.1111111111111111",
"               .,,.,,,,,,,,,,,,,,,,,,,,,,,,,,,,.1111111111111111",
"               .,,.,,,,,,,,,,,,,,,,,,,,,,,,,,,,.1111111111111111",
"               .,..,,,,,,,,,,,,,,,,,,,,,,,,,,,,.1111111...111111",
"               .,,,,,,,,,,,,,,,,,,,,,,,,,,,,,,,.11111...<.111111",
"               .,,,,,,,,,,,,,,,,,,,,,,,,,,,,,,,.1111..<<<.111111",
"               .,,,,,,,,,,,,,,,,,,,,,,,,,,,,,,,.11...<<<<.111111",
"               .,,,,,,,,,,,,,,,,,,,,,,,,,,,,,,,.1..<<<<<<.111111",
"               ...................................<<<<<<<.111111",
"               .<<<<<<<<<<<<<<<<<<<<<<<<<<<<<<<.<<<<<<<<<.111111",
"               .<<<<<<<<<<<<<<<<<<<<<<<<<<<<<<<.<<<<<<<<<.111111",
"               .<<<<<<<<<<<<<<<<<<<<<<<<<<<<<<<.<<<<<<<<<.111111",
"               .<<<<<<<<<<<<<<<<<<<<<<<<<<<<<<<.<<<<<<<<<.111111",
"               .<<<<<<<<<<<<<<<<<<<<<<<<<<<<<<<.<<<<<<<<<.111111",
"               .<<<<<<<<<<<<<<<<<<<<<<<<<<<<<<<.<<X<<<<<<.111111",
"               .<<<<<<<<<11<<<<<<<<<<<<<<<<<<<<.<<X<<<<<<.111111",
"               .<<<<<%%%%11<<<<<<<<<<<<<<<<<<<<.<XXX<<<<<.111111",
"               .<<<<%%@@@@<<<<<<<<<<<<<<<<<<<<<.<OOO<<<=<.111111",
"               .<<<1@@@@@@1<<<<<<<<<<<<<<<<<<<<.<OOO<=<>>.111111",
"               .<<<<111111<<<<<<<<<<<<<<<<<<<<<.<OO>>>><<.111111",
"               .>>>>>>>>>>>>>>>>>>>>>>>>>>>>>>>.>>><<<<<<.111111",
"111111111111111.<<<<<<<<<<<<<<<<<<<<<<<<<<<<<<<.<<<<<<<<<.      ",
"111111111111111.<<<<<<<<<<<<<<<<<<<<<<<<<<<<<<<.<<<<<<<<<.      ",
"111111111111111.<<<<<<<<<<<<<<<<<<<++<++<<<<<<<.<<<<<<<<<.      ",
"111111111111111.<<<<<<<<<<<<<<<<<<+++++++<<<<<<.<<<<<<<<<.      ",
"111111111111111.<<<<<<<<<<<<<<<<<<+++++++<<<<<<.<<<<<<<<<.      ",
"111111111111111.<<<<<<<<<<<<<<<<<<<+++++<<<<<<<.<<<<<<<<<.      ",
"111111111111111.<<<<<<..<<<<<<<<<<<<+++<<<<<<<<.<<<<<<<<<.      ",
"111111111111111.<<::::::::::<<<<<<<<<+<<<<<<<<<.<<<<<<<<<.      ",
"111111111111111.<<;;;;;;;;;;<<<<<<<<<<<<<<<<<<<.<<<<<<<<<.      ",
"111111111111111.<<<;;;;;;;;<<<<<<<<<<<<<<<<<<<<.<<<<<<<<<.      ",
"111111111111111.<<<;;;;;;;;<<<<<<<<<<<<<<<<<<<<.<<<<<<<<<.      ",
"111111111111111.<<<;;;;;;;;<<<<<<<1-***-1<<<<<<.<<#<<<<<<.      ",
"111111111111111.<<<;;;;;;;;<<<<<<<*******<<<<<<.<<#<<<<<<.      ",
"111111111111111.<<<;;;;;;;;<<<<<<<*******<<<<<<.<###<<$<<.      ",
"111111111111111.<<<;;;;;;;;<<<<<<<*******<<<<<<.<###<<%<<.      ",
"111111111111111.<<<;;;;;;;;<<<<<<<**&&&**<<<<<<.<ooo<%%%<.      ",
"111111111111111.>>>>>>>>>>>>>>>>>>>>>>>>>>>>>>>.>>oo<%%%<.      ",
"111111111111111.<<<<<<<<<<<<<<<<<<<<<<<<<<<<<<<.<<>>>%%%<.      ",
"111111111111111.<<<<<<<<<<<<<<<<<<<<<<<<<<<<<<<.<<<<<>>%<.      ",
"111111111111111.<<<<<<<<<<<<<<<<<<<<<<<<<<<<<<<.<<<<<<<>>.      ",
"111111111111111.<<<<<<<<<<<<<<<<<<<<<<<<<<<<<<<.<<<<<<<<<.      ",
"111111111111111.<<<<<<<<<<<<<<<<<<<<<<<<<<<<<<<.<<<<<<<<<.      ",
"111111111111111.<<<<<<<<<<<<<<<<<<<<<<<<<<<<<<<.<<<<<<<<<.      ",
"111111111111111.<<<<<<<<<<<<<<<<<<<<<<<<<<<<<<<.<<<<<<<<<.      ",
"111111111111111.<<<<<<<<<<<<<<<<<<<<<<<<<<<<<<<.<<<<<<<<<.      ",
"111111111111111.<<<<<<<<<<<<<<<<<<<<<<<<<<<<<<<.<<<<<<<<<.      ",
"111111111111111.<<<<<<<<<<<<<<<<<<<<<<<<<<<<<<<.<<<<<<<<<.      ",
"111111111111111.<<<<<<<<<<<<<<<<<<<<<<<<<<<<<<<...<<<<<<<.      ",
"1111111111111111...............................  ....<<<<.      ",
"11111111111111111111....11111111       ....         ...<<.      ",
"11111111111111111111111111111111                      ....      ",
"11111111111111111111111111111111                                "
};
