/* XPM */
static char *ba972f19fc68426b8be725c91e641f3dECnfmWrdqsea9khG[] = {
/* columns rows colors chars-per-pixel */
"184 55 2 1 ",
"  c black",
". c white",
/* pixels */
"                                                                                                                                                                                        ",
"                                                                                                                                                                                        ",
"  ....................................................................................................................................................................................  ",
"  .    ..........................................................................................................................................................................    .  ",
"  .  ..............................................................................................................................................................................  .  ",
"  . ................................................................................................................................................................................ .  ",
"  . .. .......................................................................................................................................................................... .. .  ",
"  ....................................................................................................................................................................................  ",
"  ....................................................................................................................................................................................  ",
"  ....................................................................................................................................................................................  ",
"  ....................................................................................................................................................................................  ",
"  ....................................................................................................................................................................................  ",
"  ....................................................................................................................................................................................  ",
"  ....................................................................................................................................................................................  ",
"  ....................................................................................................................................................................................  ",
"  ....................................................................................................................................................................................  ",
"  ....................................................................................................................................................................................  ",
"  ....................................................................................................................................................................................  ",
"  ....................................................................................................................................................................................  ",
"  ....................................................................................................................................................................................  ",
"  ....................................................................................................................................................................................  ",
"  ....................................................................................................................................................................................  ",
"  ....................................................................................................................................................................................  ",
"  ....................................................................................................................................................................................  ",
"  ....................................................................................................................................................................................  ",
"  ....................................................................................................................................................................................  ",
"  ....................................................................................................................................................................................  ",
"  ....................................................................................................................................................................................  ",
"  ....................................................................................................................................................................................  ",
"  ....................................................................................................................................................................................  ",
"  ....................................................................................................................................................................................  ",
"  ....................................................................................................................................................................................  ",
"  ....................................................................................................................................................................................  ",
"  ....................................................................................................................................................................................  ",
"  ....................................................................................................................................................................................  ",
"  ....................................................................................................................................................................................  ",
"  ....................................................................................................................................................................................  ",
"  ....................................................................................................................................................................................  ",
"  ....................................................................................................................................................................................  ",
"  ....................................................................................................................................................................................  ",
"  ....................................................................................................................................................................................  ",
"  ....................................................................................................................................................................................  ",
"  ....................................................................................................................................................................................  ",
"  ....................................................................................................................................................................................  ",
"  ....................................................................................................................................................................................  ",
"  ....................................................................................................................................................................................  ",
"  ....................................................................................................................................................................................  ",
"  ....................................................................................................................................................................................  ",
"  . .. .......................................................................................................................................................................... .. .  ",
"  . ................................................................................................................................................................................ .  ",
"  .  ..............................................................................................................................................................................  .  ",
"  .    ..........................................................................................................................................................................    .  ",
"  ....................................................................................................................................................................................  ",
"                                                                                                                                                                                        ",
"                                                                                                                                                                                        "
};
