/* XPM */
static char *_7433260d4484bd0c4928b7b8c7c3135V31WefBoHznjr2Yb[] = {
/* columns rows colors chars-per-pixel */
"64 64 130 2 ",
"   c None",
".  c #AA2935",
"X  c #B12B36",
"o  c #BB2D39",
"O  c #AD3533",
"+  c #B33436",
"@  c #BE3D37",
"#  c #BB3338",
"$  c #C0323A",
"%  c #CC333D",
"&  c #CD3A3C",
"*  c #D63F3E",
"=  c #BF4336",
"-  c #C44437",
";  c #C04A35",
":  c #CE433B",
">  c #C04A3F",
",  c #CF493A",
"<  c #D7413E",
"1  c #D9453D",
"2  c #D14D39",
"3  c #DE4C3E",
"4  c #C35434",
"5  c #C45933",
"6  c #C2503E",
"7  c #CF543E",
"8  c #D4543B",
"9  c #DA503C",
"0  c #D35B3B",
"q  c #DE5E3C",
"w  c #E24F3F",
"e  c #E3543E",
"r  c #E55D3C",
"t  c #EB5C3F",
"y  c #D66237",
"u  c #D86F35",
"i  c #DA7534",
"p  c #DB7B33",
"a  c #E5603E",
"s  c #EC633E",
"d  c #E46B3A",
"f  c #EE6C3C",
"g  c #EA7739",
"h  c #F1743C",
"j  c #F27D3A",
"k  c #AB3B41",
"l  c #B13B41",
"z  c #BD3A41",
"x  c #C03B42",
"c  c #C93941",
"v  c #D43640",
"b  c #D53841",
"n  c #DC3941",
"m  c #E43B44",
"M  c #B24141",
"N  c #B24D4D",
"B  c #BD655E",
"V  c #C34B40",
"C  c #C5464A",
"Z  c #DE4342",
"A  c #D54B4E",
"S  c #CA5947",
"D  c #D95E4B",
"F  c #C25352",
"G  c #CB5655",
"H  c #C45F51",
"J  c #DC5B59",
"K  c #E54343",
"L  c #E74A41",
"P  c #E84E41",
"I  c #E1454B",
"U  c #E34B4E",
"Y  c #E95440",
"T  c #E55B43",
"R  c #E4534B",
"E  c #CB6046",
"W  c #D77643",
"Q  c #D87B48",
"!  c #C56350",
"~  c #CE6253",
"^  c #C2635C",
"/  c #DE6757",
"(  c #C36E64",
")  c #C27266",
"_  c #C97562",
"`  c #D67167",
"'  c #D87866",
"]  c #E26C64",
"[  c #E37064",
"{  c #EC8237",
"}  c #EE8C36",
"|  c #F4823A",
" . c #F78F38",
".. c #EF9035",
"X. c #F19734",
"o. c #F89437",
"O. c #F29D33",
"+. c #FA9E36",
"@. c #D9804E",
"#. c #D98352",
"$. c #DA8857",
"%. c #DB8C5B",
"&. c #DD9464",
"*. c #DE9A6B",
"=. c #CB8674",
"-. c #CC8873",
";. c #D18776",
":. c #D28A75",
">. c #CF927D",
",. c #DE9E70",
"<. c #D1967E",
"1. c #E28E7A",
"2. c #DFA071",
"3. c #E0A375",
"4. c #E0A77A",
"5. c #E1AC7E",
"6. c #D59E82",
"7. c #DBA681",
"8. c #DAAB8E",
"9. c #E0AD83",
"0. c #E3B184",
"q. c #E0B48D",
"w. c #E4B98C",
"e. c #E1AE90",
"r. c #E3BD94",
"t. c #E1BE9B",
"y. c #E7C69B",
"u. c #E7CBA1",
"i. c #E8CDA2",
"p. c #E9D4A9",
/* pixels */
"                                                                                                                                ",
"                                                                                                                                ",
"                                                                                                                                ",
"                                                                                                                                ",
"                                                                                                                                ",
"                                                                                                                                ",
"                                                                                                                                ",
"                                                                                                                                ",
"                          p.p.p.p.p.p.p.p.p.i.r.0.3.*.%.#.Q W             p.p.p.p.p.p.p.p.p.i.y.5.3.*.%.#.Q W                   ",
"                        p.p.p.p.p.p.p.p.p.p.i.r.0.3.*.%.#.Q W W         p.p.p.p.p.p.p.p.p.p.u.r.0.3.*.%.#.Q W W                 ",
"                        t.t.t.t.t.t.t.t.t.t.r.q.9.4.2.&.%.@.Q Q         t.t.t.t.t.t.t.t.t.t.t.q.9.4.,.&.$.@.Q Q                 ",
"                      8.6.<.>.>.<.<.<.<.>.>.<.<.7.9.5.2.&.$.$.&.5.    q.6.<.>.>.>.>.>.>.>.>.>.6.2.9.5.3.&.%.@.@.Q               ",
"                  p.t.6.=.( B B B B B B B B ) -.<.w.w.5.*.&.&.3.5.i.t.6.=.) B B B B B B B B ( =.7.8.w.7.2.&.%.$.@.Q W           ",
"                p.p.t.6.( N k k k k k k M = N ) <.r.y.w.5.3.2.5.y.i.t.<.( N k M k M k k k k N ( 6.t.y.w.5.,.&.%.#.Q W W         ",
"                t.t.8.;.^ k . . O O k = O . M B -.8.r.q.9.4.4.7.0.t.8.-.B = . . . . . . . . l B =.8.r.q.9.4.*.&.$.@.Q Q         ",
"              8.6.6.=.( F z + = = = 5 = = = V ! _ -.>.6.7.9.9.7.2.<.=.) B = + @ + # o o l o z F ( =.>.7.7.9.9.3.&.$.#.#.@.      ",
"          p.t.6.=.) B N C c & , y i i i y y 0 E ! B ) -.6.q.q.6.=.) B H S 7 2 1 % v o v c v c x F B ( -.6.q.w.5.2.&.%.$.@.Q W W ",
"        p.p.t.6.) N k l c b K r g ..X...{ g d 0 V M N ) <.r.r.<.) N @ > 7 r r e m n n n v n v v z l N ) <.r.y.w.5.*.&.%.#.Q W W ",
"        p.p.t.>.B M . @ b Z Y s | o.+. .| j d 0 - + l ^ ;.e.e.:.B M + - 2 r t Y w m m m m m n % o . k B >.t.i.w.0.3.*.%.#.Q W W ",
"        p.p.t.>.B k O = 2 r f g g j j h f f r 3 : $ x G ` 1.1.' ~ > - 2 9 e t w L m m m m m n % o . k B >.t.i.r.0.3.*.%.#.Q W W ",
"        p.p.t.>.B k O = y g j j f f s t Y Y P 3 * % b A J ] [ ] D 0 8 3 w w P L m m m m m m n % o . k B 6.t.u.y.0.3.*.%.#.Q W W ",
"        p.p.t.>.B k O = i ..o.| f Y L L L K K m m m n Z I U R R T a r e w K m m m m m m m m n % o . k B >.t.u.r.0.3.*.%.#.Q W W ",
"        p.p.t.>.B M O 5 p O.+.| s L m m m m m m m m m m m m K P Y s s Y L m m m m m m m m m v % o . k B >.t.u.r.0.3.*.%.#.Q W W ",
"        p.p.t.>.B O O 5 p O.+.| s L m m m m m m m m m m m m m K P Y Y P w m m m m m m m m m n % o . k B >.t.u.r.0.3.*.%.#.Q W W ",
"        p.p.t.>.B k O 5 p O.+.| s L m m m m m m m m m m m m m m L L L L m m m m m m m m m m v % o . k B <.t.i.w.9.3.*.%.#.Q W W ",
"        p.p.t.>.B k O 5 p O.+.| f L m m m m m m m m m m m m m m m m K K m m m m m m m m m m v % o . k B <.r.i.y.0.3.*.%.#.Q W W ",
"        p.p.t.>.B k O 5 p O.+.| s L m m m m m m m m m m m m m m m m m m m m m m m m m m m m n % o . k B >.t.i.r.0.3.*.%.#.Q W W ",
"        p.p.t.>.B M O 5 p O.+.| f K m m m m m m m m m m m m m m m m m m m m m m m m m m m m n v o . + ( >.t.i.r.0.3.&.%.$.Q W W ",
"        p.p.t.>.( k = = @.O.+.| s L m m m m m m m m m m m m m m m m m m m m m m m m m m m m v % o . k B >.t.i.r.0.3.*.%.#.Q W W ",
"        p.p.t.>.B k O 5 { O.+.{ s L m m m m m m m m m m m m m m m m m m m m m m m m m m m m n c o . k B >.t.i.r.0.3.*.%.$.W W W ",
"        p.p.t.>.B k O 5 p X.O.j s L m m m m m m m m m m m m m m m m m m m m m m m m m m m m n v z . k B <.r.i.r.0.3.*.%.$.Q W W ",
"        p.p.t.>.B M O = u ....p s K m m m m m m m m m m m m m m m m m m m m m m m m m m m m v c X . k B <.r.i.r.0.3.*.%.#.Q W W ",
"        p.p.8.6.B k O ; y { | f t L m m m m m m m m m m m m m m m m m m m m m m m m m m m m n % o . k ^ ;.t.u.r.0.3.*.%.#.Q W W ",
"        p.p.t.=.B O O ; y g j f t K m m m m m m m m m m m m m m m m m m m m m m m m m m m m v % o . k B 6.t.u.r.0.3.*.%.#.Q W W ",
"        p.p.t.6.B k O = 8 d f s P L m K m m m m m m m m m m m m m m m m m m m m m m m m m m n % X . k B >.r.i.r.0.3.*.%.#.Q W W ",
"        p.p.t.=.B k O $ 2 r s T t Y P P L m m m m m m m m m m m m m m m m m m m m m m m m m n v z . k B 6.r.i.r.0.3.*.%.#.Q W W ",
"        p.p.t.6.B k . @ : 3 Y t t s t t P m m m m m m m m m m m m m m m m m m m m m m m m m v c o . k B 6.t.i.r.9.3.*.%.#.Q W W ",
"        p.p.t.6.( k . # & n P Y t f f t Y m m m m m m m m m m m m m m m m m m m m m m m m m n c o . k B 6.t.i.r.9.3.*.%.#.Q W W ",
"        p.p.t.6.( N k z c v n P t f f s Y L K m m m m m m m m m m m m m m m m m m m m m m v v c z l N ) 6.t.t.w.9.2.&.%.Q Q W W ",
"          i.t.6.=.( ( N C c * < e t s t t Y Y P K m m m m m m m m m m m m m m m m m n n v % c C x B ( =.6.6.q.9.2.&.%.%.#.Q W W ",
"              8.6.6.=.( F z $ c 1 w Y t t s t Y K K m m m m m m m m m m m m m m m m n v v o z C ( ;.<.<.9.9.5.3.&.%.#.Q #.      ",
"                t.t.8.=.B l X o * m L e s f f t Y K m m m m m m m m m m m m m m m m n v x X l B ;.8.r.q.9.4.,.&.%.Q Q Q         ",
"                p.p.t.6.B N l z % b Z e s f h s Y K K m m m m m m m m m m m m m n n v c x l N ) <.r.y.w.5.*.&.%.#.Q W W         ",
"                  p.t.6.=.( B F C c & < e t s Y Y Y P K K m m m m m m m m m n n v v c C N B ) ' <.q.w.9.2.&.%.#.#.W W           ",
"                      8.6.6.=.( F z $ c < e Y Y Y t Y P K m m m m m m m m m n v c o z N ` 6.6.6.7.9.5.2.&.%.@.#.Q               ",
"                        t.t.8.=.^ l X # & n L Y t s t Y P K m m m m m m m m n v o X k B ) 6.r.q.9.4.,.&.%.@.Q W                 ",
"                        u.p.t.6.) N + z c b n L e t s Y P m m m m m m m n v v c z l N ) 6.t.t.w.5.,.&.%.#.Q W W                 ",
"                          p.t.6.=.( B F C c % < w e Y P K K m m m m m n v v c x F ^ ( ' 6.t.q.9.2.&.$.$.#.Q W                   ",
"                              8.6.6.=.( F z $ c n L P L m m m m m m m v v o @ F ( ;.<.<.9.9.5.2.&.$.@.$.Q                       ",
"                                t.t.8.=.B l X o % n K m m m m m m m n % o X l ^ ;.8.r.q.9.4.*.&.%.@.Q W                         ",
"                                p.p.t.6.B N l z c v n n v b b b n n v c z l N ) <.r.y.w.5.*.&.%.$.Q W W                         ",
"                                  p.t.6.=.( B F C c % % % % v c % % c C F B ) -.<.q.w.9.2.&.%.$.@.W W                           ",
"                                      8.6.6.=.( N x o o o o o o X o z F ( ;.<.<.7.9.5.3.&.%.#.#.@.                              ",
"                                        t.t.8.=.^ l . . . . . . . . l B ;.8.r.q.9.4.,.&.%.@.W Q                                 ",
"                                        p.p.t.6.( N k k k k k k k l N ( <.r.y.w.5.,.&.$.$.W W W                                 ",
"                                          p.t.6.=.( B B B B B B B B ( =.<.w.w.5.2.&.%.$.#.W W                                   ",
"                                              8.6.6.=.6.>.6.<.<.6.>.6.6.6.9.5.,.&.$.#.#.@.                                      ",
"                                                t.t.t.t.t.t.r.t.t.t.r.q.9.4.,.&.%.@.W Q                                         ",
"                                                p.p.p.p.i.p.p.p.i.p.u.r.0.3.&.%.$.W Q W                                         ",
"                                                  p.p.p.p.p.p.p.p.p.u.t.0.3.*.%.$.W W                                           ",
"                                                                                                                                ",
"                                                                                                                                ",
"                                                                                                                                ",
"                                                                                                                                "
};
