/* XPM */
static char *_c4872514efc44568b6672b66b7da3f5GVzFNb5036utTYTu[] = {
/* columns rows colors chars-per-pixel */
"64 64 7 1 ",
"  c black",
". c #8C4B05",
"X c #A85E14",
"o c #AD6518",
"O c #E09D5A",
"+ c #F7B674",
"@ c white",
/* pixels */
"                                @@@@@@@@@@@@@@@@@@@@@@@@@@@@@@@@",
"                                @@@@@@@@@@@@@@@@@@@@@@@@@@@@@@@@",
"                                @@@@@@@@@@@@@@@@@@@@@@@@@@@@@@@@",
"                                                @@@@@@@@@@@@@@@@",
"            XXXXXXXXXXXXXXXXXXXXXXXXXXXXXXXXXXX    @@@@@@@@@@@@@",
"        XXXXXXXXXXXXXXXXXXXXXXXXXXXXXXXXXXXXXXXXXX     @@@@@@@@@",
"       XXX++++++++++++++++++++++++++++++++++++++XXXXXX   @@@@@@@",
"      XXX++++++++++++++++++++++++++++++++++++++++XXXXXXX  @@@@@@",
"     XXX++++++++++++++++O+++++++++++++++++++++++++XXXXXXX  @@@@@",
"     XX+++++++++++++++++++++++++++++++++++++++O++++XXXXXXX @@@@@",
"     XX+++++++++++++++++++++++++++++++++++++++++++++XXXXXX @@@@@",
"    XXX+++++++++++++++++++++++++++++++++++++++++++++XXXXXX @@@@@",
"    OOO++O+++++++++++++++++++O++++++++++++++++++++++OOOOXXX @@@@",
"    OOO++++++++++++++++++++++++++++++++++++++++++++OOOOOOXX @@@@",
"     OO++++++++O+++++++++++++++++++++++++++++++++++OOOOOOXX @@@@",
"     OO+++++++++++++++++++++++++++++++++++++++++++OOOOOOOXX @@@@",
"      O+++++++++++++++++++++++++++++++++++++++++++OOOOOOOXX @@@@",
"      O++++++++........+++++++++++++........++++++OOOOOXXX  @@@@",
"       ++++++..........+++++++++O+++..........+++OOOOOXXX  @@@@@",
"       ++++++...OOOOOO+++++++++++++++OOOOOO...+++OOOOXXX  @@@@@@",
"        +++++++O      O+++++++++++++O      o+++++OOOOXX  @@@@@@@",
"        ++++++O @  @@@ O+++++++++++O @@  @@ O++++OOOOXX @@@@@@@@",
"         +++++O@@   @@@O+++++++++++O@@@   @@O++++OOOOXX @@@@@@@@",
"         ++++++O     OO+++++++++++++O     OO+++++OOOOXX @@@@@@@@",
"         +++++++OOOOO++++++++++++++++OOOOO+++++++OOOOXX @@@@@@@@",
"         ++++++++++++++++++++++++++++++++++++++++OOOOXX @@@@@@@@",
"         ++++++++++++++++++++++++++++++++++++++++OOOOXX @@@@@@@@",
"         ++++++O+++++++++++++++++++++++++++++++++OOOOXX @@@@@@@@",
"         ++++++++++++++++O+++++++++++++++++++++++OOOOXX @@@@@@@@",
"         ++++++++++++++++++++++++++++++++++++++++OOOOXX @@@@@@@@",
"         ++++++++++++++++++++++++++++++++++++++++OOOOXX @@@@@@@@",
"         ++++++++++++++++++++++++++++++++++++++++OOOOXX @@@@@@@@",
"@@@@@@@@ ++++++++++++++++++++++++++++++++++++++++OOOOXX         ",
"@@@@@@@@ ++++++++++++++++++++++++++++++++++++++++OOOOXX         ",
"@@@@@@@@ +++++O++++++++++++++O+++++++++++++++++++OOOOXX         ",
"@@@@@@@@ ++++++++++++++++++++++++++++++++++++++++OOOOXX         ",
"@@@@@@@@ +++++++++++++++++++++++++++++++++++O++++OOOOXX         ",
"@@@@@@@@ ++++++++++++++++++++++++++++++++++++++++OOOOXX         ",
"@@@@@@@@ ++++++++++++++++++++++++++++++++++++++++OOOOXX         ",
"@@@@@@@@ ++++++++++++++++++++++++++++++++++++++++OOOOXX         ",
"@@@@@@@@ ++++++++++++++++++++++++++++++++++++++++OOOOXX         ",
"@@@@@@@@ +++++++++++++O++++++++++++++++++++++++++OOOOXX         ",
"@@@@@@@@ +++++++++++++++++++++++++++++++++++++++OOOOOXX         ",
"@@@@@@@@ ++++++++++++++++++++O++++++++++++++++++OOOOOXX         ",
"@@@@@@@@ ++++++++++++++++++++++++++++++++++++++++OOOOXX         ",
"@@@@@@@@ +++++++O+++++++++++++++++++++O++++++++++OOOOXX         ",
"@@@@@@@@ ++++++++++++++++++++++++++++++++++++++++OOOOXX         ",
"@@@@@@@@ ++++++++++++++++++++++++++++++++++++++++OOOOXX         ",
"@@@@@@@@ ++++++++++++++          ++++++++++++++++OOOOXX         ",
"@@@@@@@@ ++++++++++++   +++++++++++++++++++++++++OOOOXX         ",
"@@@@@@@@ +++++++++++  +++++++++++++++++++++++++++OOOOXX         ",
"@@@@@@@@ +++O+++++  +++++++++++++++++++++++++++++OOOOXX         ",
"@@@@@@@@ ++++++++++++++++++++++++++++O+++++++++++OOOOXX         ",
"@@@@@@@@ ++++++++++++++++++++++++++++++++++++++O+OOOOXX         ",
"@@@@@@@@ ++++++++++++++++++++++++++++++++++++++++OOOOXX         ",
"@@@@@@@@ ++++++++++++O+++++++++++++++++++++++++++OOOOX          ",
"@@@@@@@@  +++++++++++++++++++++++++++++++++++++++OOOO           ",
"@@@@@@@@@  ++++++++++++++++++++++++++++++++++++++OOO            ",
"@@@@@@@@@@  ++++++++++++++++++++++++++++++++++++++O             ",
"@@@@@@@@@@@                                                     ",
"@@@@@@@@@@@@@@@@@@@@@@@@@@@@@@@@                                ",
"@@@@@@@@@@@@@@@@@@@@@@@@@@@@@@@@                                ",
"@@@@@@@@@@@@@@@@@@@@@@@@@@@@@@@@                                ",
"@@@@@@@@@@@@@@@@@@@@@@@@@@@@@@@@                                "
};
