/* XPM */
static char *_720e9eef8ed4a78e2780e36db6b8a40FWKEGCtZSlGdthXF[] = {
/* columns rows colors chars-per-pixel */
"16 16 10 1 ",
"  c #3B00AA",
". c #4501B6",
"X c #5E09C7",
"o c #7A1DD5",
"O c #5204C0",
"+ c #983CE0",
"@ c #8123D7",
"# c #8426D9",
"$ c #9336DF",
"% c white",
/* pixels */
" .XoX  OOO .XoX ",
".XoX .OXXXOO.XXX",
"X+X .@+++++@ .Xo",
"+O .@+@XXX@+@ .X",
"+ .X+@...  @+X O",
"o O@X.Xo@X. X+..",
"o X@OXoXX+X. X+.",
"o XoO.X. X+X.X+O",
"@OXoXO  .X@XOX#O",
"$..XoXXXX@XX.X@O",
"+X .Xoo@@XXO X+O",
"@@X .XXXXXO OX+O",
".@+O   .   OX+X.",
" .@+XOOOOOOXoXO ",
". .@++$@@@ooXO  ",
" O .XXXXXXXO. . "
};
