/* XPM */
static char *portal_resized[] = {
/* columns rows colors chars-per-pixel */
"64 64 55 1 ",
"  c #3700A7",
". c #3800A7",
"X c #3D00AD",
"o c #3F00B0",
"O c #4001AF",
"+ c #4401B3",
"@ c #4903B6",
"# c #4708B1",
"$ c #4C09B5",
"% c #4702B8",
"& c #4C03BB",
"* c #4F08BA",
"= c #5105BE",
"- c #540ABD",
"; c #580EBE",
": c #5B12BE",
"> c #5405C1",
", c #5907C4",
"< c #5609C1",
"1 c #5B09C5",
"2 c #5F0AC8",
"3 c #5E11C3",
"4 c #610DC7",
"5 c #630DC9",
"6 c #6213C5",
"7 c #6618C6",
"8 c #6919C6",
"9 c #6611CA",
"0 c #6B13CD",
"q c #6D19CC",
"w c #7017CF",
"e c #711ACF",
"r c #6F15D0",
"t c #7116D1",
"y c #751BD2",
"u c #7A1ED4",
"i c #7522CE",
"p c #7824CF",
"a c #7722D0",
"s c #7C23D4",
"d c #7E29D3",
"f c #8125D7",
"g c #8229D7",
"h c #8325D8",
"j c #862AD8",
"k c #8A2EDB",
"l c #8830D7",
"z c #8D32DB",
"x c #9135DD",
"c c #9438DE",
"v c #9436E0",
"b c #973BE0",
"n c #9A3DE1",
"m c #9F42E4",
"M c #A042E4",
/* pixels */
".X.Xo+%%>>29tuyt05,=+O....OO%&>>>>>>>>%%+X.XX+%&>15rtuut05>=+X..",
".XXXo+%>>159tuyt05,=#OX..XO+%&>>>>>>>%>%+XXX++%&>,59tyyt05>>++X.",
".XX++%&>>250tttr51=*+OO.XOO+&>>>>>>>>>>%+ooo+%%>>,25rttr55,>@+OX",
"XXX+%%*<29rrttr94==@+OOXOOO&&>>>>>>>>>>%%++++%%&>>>55rrr02,>=$++",
"++++&>>25rttr052-*+++o++++%&>>,,,,>,>,,>@%%%%%&&&&><290554,,===*",
"++%@*>19tttt052>$++O++++&&=>,111,,21,,,>>>>*===&%&@><225444,1,,-",
"%%&>149rtyy091>&+OX++@=-<,144999999099552111,,,=&%%&>>11,4445555",
"%&>19euuyt091>&%+Xo+*<368qqeyyyyyyyayyyyeqq8094-@+o%&>><,,555900",
">>19asgsur51-*+Ooo+*<70yaddddjjjkgjjjjdldddsye0;$+X++&=>,5550ttt",
">13eskzdy94=&OOO++@<7yujkxxxxxxzxxxxxxxxxxlkhfe6-+XX+%%=>,40rtyu",
"550adkkse4>&+OOO+@-6qujkxxvxcxxxxxxxzxxvvvvxkjuq:$+O+++&>>25rttu",
"yyyssddq6<*++OO+*-60sjkvxxxxlljjjjjdjjkkxxxxxkjp8:*$++++&>,40rtt",
"jddsae03-$++O++*<7esjzxxxzkhsauyayayyassgkkvxxzjp86-#OO+%&><5500",
"vxzde6<*@+X+O+*-9ysjkzvxkjsue0599992999eysjzxxxkjsq6-+XOo%&>,255",
"mbxdq1&++XXX++=1qsjkvvvzgsur92,<,>,>,<16eysgkxxxkjp8;#ooo+%&>,,2",
"mnxd8-++XXo++&<7yjkvvzzgae92<>>>>>>>>&>>16qagzxvxxje3*++oo+%>>,,",
"mbzd3$oXo+++&>10szxvvkjsq3<>*&%&&&%@@+@#$-:8ajzvcvku8<=++O++&>>,",
"mbzp7#XXX++%&,6ygzxxkjsw3>*@%%%%%%%++OOXOO$:8sgzxcxht4-*+OX+%=>>",
"bxli:#XXO@&=,49ygzzzjse91*%%&*@&*&*@+OXXXXO-6esgkzkgy84-$OO+%&=>",
"xzdi:#XXO+==29tyssdse081>&>*><1311<-$@++XX+#-67ipgfgssq6*+X+%&&&",
"kjs8:#.o+&=45ryyuur871;<>>>12999q884<-*+O+++**338wushjd83@oo+%%&",
"hsy7$#Xo@&-5rtftr941<=-=>,26qryuuyy091,=&++Ooo#*-5qugkji3*%o+%%%",
"uue6*#Xo@=25tfft94,>&&%=>25rrtuuuusy0941=*@+ooo%=-5edkjd73*@%%%%",
"uue6*#Xo@=29rffy92>>>*=<299rrtttuyyuuut81>%+oooo+&-9edgpi73<*%%o",
"uur5-OOO&=50thft91>>>><10rrrr0900rwusfde01>o%oooo$o<4qsadai33*oo",
"hut4-OO#*-50tftt92>>>,10rrtrr552550yfzzfr5>>o>ooooo><50sdldi3*>o",
"uut6$#O+=,50yhyw4>>>><29rttr921>>14edjzga091>>ooooo%><9yjxzd3>oo",
"uut6-OO+&,50tfyt4>>>>>1290r021>*&=-5edgfsar91<>ooooo><5alvxd7>>%",
"hue6-OO+&;50tyyt5<&%>&>,2995<>&%@+=-6easdjsu31>>#oo>>>5ydxxdq<>o",
"uut9-OO+=450tytr41>>%%%>,22<>&%+OO+$-40udkkde1>>>oo%>25ydxxdq3>>",
"huy5-+O@&,50tttr51>%>%%%>><>&%+oOXO+=<9yjxzda9,>>o>>>,9ykxxdq<>%",
"uuy0:$$%=,50tfur51>>%%>%&*&@+oooXX++=,4eskzdy9>>>>o>>29ydkdd9>>>",
"hsy03*&%>,5rtuyr52>>>&&%&++OOXXXX++%=,4rfhhfr5,,>==>>25tsjju71>>",
"hsae3>>>>259tyyt05,,>==%+OOOXXXOX+%*>,50yhhyr5,,>=>>,,5ruhsu91>>",
"hhst9>>>>,25rttt055,,>=&+OOOXOO++%&=,49tyuut05,,>>&>>24ryhut2>&>",
"kkde9>%>>>,45rrr00951,>=&$+#+++@%&><490tttrr954,>&>>>25ryuut3>>>",
"zkhu3<&%%&>>450rrtr054,>===*======,59tytr055551>>%&>>,4ruuat91>>",
"vzjs3<%%%%@><25rrtt0554,,,,;,,,,,,49tyuyr555,41>>%&&>24rusat21>>",
"bvka6>%o++%&>>29rttt555545555555555wtuyt0544,5,=%%%%>,4ruusy2>>%",
"nbzdq<&%++++%><200ttrr50500000rr00wwyyew55,,,,,=%++%&15tuhda9>>>",
"nbxse3>%+OOO@&><559ttttttttttuttytttrr5554,,,,=&&oo%>19thkjs91>>",
"nbxgy2>&+OOO++&>,209rttuyyuuuuhuffftr555544,,>=%oooo>19ygzxsq1>>",
"nvxgu91>&+OO+++&>>250tyuuuyuuhuhfhyt05,4,4,,>=&@#oo>>>9yjxxdq1>o",
"vxzgse93=$+OOO++%>,20ttttttttutytyt0544,,,,>=@@+#ooo>>9akxxdq>>>",
"kkjjsut94==++oX+@&><550000099rrrrr0555,4,,>=@+++%o%>>,5ydxcdq1>>",
"jhhhsuut94==+oXo++&>>2555555542555555544,,>%++O+%>>><19ykxxdq1>>",
"uussuhsut94-$+XXo++&=>,,,<,1,,<1,-4-,-,->>&%+OO+@>>>25rudxdd9>>%",
"000yuuhhsye6-++ooo++&&&>=&*=>>>>===&=&=&&%%++++@>>120tasddsq3>>%",
"<<68tsjjkjsq3=++XXXo+++#+#@@%&&%@$+++$++++++oo%>>>30asjjsuq31>%%",
"&*=4qshjxkks7<&++XXXXXOOOOO++%%++OOXOOOXXooo%>>>>>2yskkda02>>%>o",
"++*-9eskxxxjy6<=++ooXXXXXXO+%%%++XXXXXXXXXo%>>>,,20adzkdt9,>>>oo",
"X++*<7qsjkkjsy83-*+o+O+X+X++o%%%+++OO+o+X+o%%>,229rysdsa02>>oooo",
"XXo+*<6qsjkkkdsq3<>%%o%o++%%&%%%@%+%+%%%+%%&>>,50rtyyyy021>%oooo",
".XXo+*<6tsjkzzkd02<>>>>>=&&>>>>>&=&=>>&&*>>>,,20rttrr0921>>%ooXX",
"XXXoo+@<9esjzvzgsr321113111<><<1<1,,<>1><1>12250rtyr92,>>>*%oXX ",
"XoXXXo+*<7qskzzlssayeeqqq0qq9995959999995455500rrtr022>>*%@ooXX.",
"o+oXXXO+*-6qsjkzkkgjjddddssuyttrtttyeywwrrrrrtrrr0042>>=%++XX.X.",
"+++ooXX++*-6qshkzzxzxxxzzkkjhfuuussuuuuuuytyyytr0521,>>%%oXX.X.X",
"%++++XXX++@<7esjkzzxxxxxzzjjhufuuuuuufuuuyyyyttr52,>>&*++oX..XX.",
"+oo+++++X++*<90ysdjgjdjdghhuuuytyyyyyyytttrrtr051>>>&%++ooXXXX.X",
"oXo+%%@++o++=-17qetuyyyyyyte0000000000009099991>>=&%+++++o+XXX.X",
"XXX+%&&@+XXo+$=<2599905559955555555555555552,,>>&&%++XX+o++XXXX.",
".XX+%&*@+XXXo+@=>,252222222222,2,5444444221,>>>%&%++oXXX++++XX.X",
"..X+&&>@+XXXoo%&>,,,,,2,,,,,2,25,,,4,,,,,2,,>>>&%++oX.Xoo+++XXX."
};
