/* XPM */
static char *stones_resized[] = {
/* columns rows colors chars-per-pixel */
"64 64 45 1 ",
"  c #171425",
". c #181426",
"X c #191729",
"o c #1C1A2D",
"O c #1E1E32",
"+ c #201F32",
"@ c #1F2035",
"# c #212136",
"$ c #23253C",
"% c #26283F",
"& c #252740",
"* c #262B44",
"= c #292D45",
"- c #292E49",
"; c #2E3046",
": c #2C324C",
"> c #31354D",
", c #2E3551",
"< c #303753",
"1 c #323956",
"2 c #353D5B",
"3 c #363F60",
"4 c #37405D",
"5 c #39415D",
"6 c #374061",
"7 c #3B4464",
"8 c #3E4865",
"9 c #3C4769",
"0 c #3E496B",
"q c #414B66",
"w c #424D6D",
"e c #46516E",
"r c #434F70",
"t c #465272",
"y c #495575",
"u c #4D5977",
"i c #4A5778",
"p c #4E5B7B",
"a c #515E7E",
"s c #53617F",
"d c #515F80",
"f c #556483",
"g c #586786",
"h c #596887",
"j c #5B6A89",
/* pixels */
"jjjjjhjjgjjjjjft4::40gjjjjjjjjse54::4490dgjjjjgay091,*$@***:4699",
"jjhjjjgjjhjjjjse4-:40sjjjjjjjjse5;-:440ipghjjjgd0064:-****-:4469",
"fffgjjjjjhhjjfaq4-:40ssjjjjjjjse5%%::490pdggjgdi0661>:>>-:4:<666",
"ppaffjjjjjhffsy84-:48pssjjjjjjse4$%%-4600ipdfdi096214555554444<4",
"tyipffjjjjjfpiw6<::<70iaggjjjjsq4&@@*:4490iiiy066<<450eyu0084,:-",
"90rtdfjjjjfpiw92:--:490iagjjjjs8-@OO@*:<67000084<:,5epsjssu04---",
"369widffgfair92,:--:<470usghjfp8=OXX@*-:16666444,,48esjjjjsy44::",
"1139ripdfpir72,,-**-:<470upsfa05%o X@@*:,<<,,:>><450asjjjjgp0746",
"-,<29rtiytr92,--****-:,400tiit81%o X+@==-:--%$%>58usssjjjjjssue0",
"--,<29000073,,-*=****--46900005,%OXo$%=----@@@$;8usjjjjjjjjsssss",
"&*-:,22663321,,::>:----,1666764:%$@$%%;;-*=@@o@:8sjjjjjjjjjjjjjj",
"***=--:,,112224455544-,,<12111,:4;;4455544-%@@@>qsjjjjjjjjjjjjjj",
"***&$$$&*-:47qeytt08661,,,,-::,455eeeeeq44:-@@*4qssjjjjjjjjjjjjj",
"**&$@Oo@$;,5eusfffsy0661,---=-,4qussssss0644::-4esjjjjjjjsjjjjjj",
"-*&@@O@@%:1qushjjjgai096,-**;:55essjjjssi005,:<4ssjjjjsjjjjjjsjj",
"****$$%;>15eahjjjjhgdi061--->55essjjjjjsa0004<47usjjjjjjjjjjjjjj",
"***---<27qyasjjjjjjhgsi81;-:5qupfhjjjjhgfap07470usjjjjjjhjhjjjjj",
"**--,170ypsffhjjjjhjgfpe4::48usjgjjjjhjjggdi099yusjjjhhhhhhghhjh",
"**-,160tsfjjjjjjhfffgfpq4::4esjjjjjhjjjjjggp0000ussjhhjjjjhhhhff",
"&*-,270igjjjjjjfsapappy81::4esjjjjhjjjjjjjhdi000yssshhjjjjhhaapa",
"**-,260ishjjjjgdpttttt07,-:5tfjjjjjjjjjjjjha00000uiafhjjjjhfpai0",
"**-,230tpfjjjjfsye900092,->5efjjjjhjhhjjjjgay009880iphjjjhfa0000",
"&*--,170yasfgffit0900072>:,5tsjjjjhggfffgfay07464470iafghffi0676",
"*&**-,,25etiipiiiytttt074118yfjjjjggdapppai076<,-:<40iaadpi0744<",
"**&$$$%=<25q0etyiippdpy09440ifjjjjgdii0yyt086,:*%$=>700i0i094,::",
"***$#OO#%;<2490ypdfgffdy099eifjjjjgay0000004<::@@@@-48000066<,--",
"::-*$OO@$&-,49wydfjjjjfpy00ypdfjggapi00000054<-@@o@@=<4496614:::",
"742,-&$@$%-<60ypdjjjjjjfpiyyipppapiiyi0y0te8754;$+@@@-=4<1144444",
"tee54:-*&*:18tsfgjjjjjfffdpiiytt0yi0iiappppuue85;$@@@@$%=-:440ee",
"ssatq71,--:4epfjjjgjjjjjgfdpy009000ypdgggjsgssuq4-$@O+@@$=:50psg",
"jjgsi092:-:5esjjjjjjjjjjjjfit966000iagghjjjjjjsu54-$@oo@$-48usgj",
"jjjfsie6<::5esjjjjgjjfjjjjfi962490ypdgjjjjjjjjssy54;$@@@;48eajjj",
"jjjjssyq4::4rfjjjjjhjjjjjjsy5,:40issfhjjjjjjjjhgat05;@%;48uasjjj",
"jjjjjspe4::4efjjjjhhjjjjjjse54:40agjjhhjhjjjjjhhgau84--48ysjjsjj",
"jjjjjjse4-:4wpfhjhjjjhjjjjse5444tsjjjjjhhjjhjhjjjjse5,15esjjjjjj",
"jjjjjjse5--18yafghjjjjjjjjse5448yfjjjjhjhjhjhjjjjjsu7448usjjjjjj",
"jjjjjjse5--,40ipfhjjjjjjjjsa0770pfjjjjjhhjhhjhjjjjfp0770pjjjjjjj",
"jjjjjhse5:::27riafhjjhjjjjsu0970pfjjjjhjjhhjhhjjjjfi0800ujjjjjjj",
"gssjjhse54,,148eiafgfffffssu0970ysfhhjjjjjhjjhhhjfsi0070tpssssjs",
"ppsshjsue5541<450iaaaaaaaauw74470yaffhjjjjjjjjgggsie854480euppas",
"ertpagffsye54,,49rttittttt074,,480iashjjjjjjjjhdau0444-4444500ui",
"00ryafhhjsuq5,:,470000000004<:::470ysfhjjjjjjggdi064::-;;;-45800",
"00ryafhjjjsy84-:4466669900854,,44600yssffffggfdp08444=4%-:>4<466",
"rrypagjjjjsae854111<,,2680t0755447000eyyipaadpp074:44455554444,4",
"ppaffhhjjjsspyw84<,:::,30yuuyte0976645780tyi0i094<,48eeeee88<,:-",
"ffffhhjjjjjjssuw4,***:<6eashssai0964<<,148000066,::40pssssp84,-*",
"ffgghhhjjjjjjsaw4,---:17ysjjjjfai094,:*:<6667661:445usjjjjsy54,-",
"aaaaghjjjjgjjspw5<,,<47rajjjjjjfdy04:@@*:,,<2<124580sjjjjjgu0744",
"ttipdgjjjjhddit0662690ypsgjjjjjfsse54@O@%--:::4450uafhhjjjhsuy0y",
"90rydfhjjjfdi0076670yasghjjjjjjjjsu8*@oO$*-**=%50usshhhjjjhhfsss",
"779rpdgghfdi0666690tpfjjjhjhjjjjjju8;+o+$-4%4*450ssjhhjhjjjhjjjj",
"6790ripddpi07323690tagjjjjjjjjjjjjs84$+$=4454488yassghjjjjhjjjjj",
"77690rtttr073,,<660iagjjjjjjjhjjjjse4#$%48eey0eeeyipfhjjjhjjjjjj",
"979900000093,,:,160tagjjjjjjjhjjjjse4;;48ussgssuy00yafhjjjhhjjjj",
"696990000093,:::,47tiaffgffgfjjjssse5448ysjjjjfsy00ypafghhjjhjjh",
"699900tttt073,,,,4400ippppasfjgfssse885eujjjjjhsuyyyipafshjjjjjj",
"6690tpppdpyr73<,,,4470tti0ipfggfsuy0yeyasjjjjjhsfapiiiidsjjjjjjj",
"790rpafhffdir731:--,4800000iaffaue0yusssshjjjjjjgfai0000aghjjjjj",
"90rypfjjjjgdi072---%4700000iifsu8880psjjjhhjjjjjhhfp0060yssfgfff",
"tyipagjjjjgfdyr64--440tt0itiiiu08558uhjjjjjhjjjjjjfp08440uappppp",
"ppadfhjjjjjhfdy94%-47ipfdpiii0094445ysjjjjhjjjjjjjfy64:400000iy0",
"fffghhjjjhjjgfpw4%:40afjggfai006-%45ysjjjjjhjjjjjjg044:460000000",
"jjjjhhhjjhjjjjar4444esjjjjfpi06,-*=4esjjjjhhjjjjjjsy4:--46999908",
"jjjjjjjhhjjjjjse4--5esjjjjfa0764:*45esjjjjjjhjjjjjs04---46666767"
};
