/* XPM */
static char *Vince_resized[] = {
/* columns rows colors chars-per-pixel */
"64 48 241 2 ",
"   c #030102",
".  c #090706",
"X  c #0C0807",
"o  c #090708",
"O  c #0D0A0A",
"+  c #060608",
"@  c #130D0B",
"#  c #1B0D0A",
"$  c #130906",
"%  c #15110E",
"&  c #1A120E",
"*  c #0F1111",
"=  c #141313",
"-  c #1B1511",
";  c #16191A",
":  c #1A1C1C",
">  c #191817",
",  c #100F10",
"<  c #230E0B",
"1  c #290D07",
"2  c #24120C",
"3  c #2C110C",
"4  c #33140D",
"5  c #3B160C",
"6  c #3D1A0D",
"7  c #36180D",
"8  c #261916",
"9  c #381914",
"0  c #350E05",
"q  c #38241A",
"w  c #322013",
"e  c #1A1D21",
"r  c #1E2123",
"t  c #232524",
"y  c #262A2A",
"u  c #282928",
"i  c #372A24",
"p  c #363939",
"a  c #3D312B",
"s  c #1E201F",
"d  c #431B0D",
"f  c #47180D",
"g  c #4B1A12",
"h  c #421911",
"j  c #4C230E",
"k  c #45210F",
"l  c #442312",
"z  c #482918",
"x  c #562B14",
"c  c #5B321A",
"v  c #552A12",
"b  c #65341A",
"n  c #75381A",
"m  c #622B12",
"M  c #493727",
"N  c #573725",
"B  c #473C34",
"V  c #533F32",
"C  c #452D21",
"Z  c #6E3B22",
"A  c #78411C",
"S  c #5B422B",
"D  c #4A443F",
"F  c #594535",
"G  c #68432B",
"H  c #7A4426",
"J  c #634B3D",
"K  c #664936",
"L  c #764A37",
"P  c #76543B",
"I  c #67503A",
"U  c #333E44",
"Y  c #2F3B42",
"T  c #3D4245",
"R  c #3A4449",
"E  c #44494D",
"W  c #464849",
"Q  c #564B44",
"!  c #5B534C",
"~  c #4A4E52",
"^  c #464E51",
"/  c #4D5456",
"(  c #4F5A5D",
")  c #4A5459",
"_  c #555455",
"`  c #5A5553",
"'  c #515759",
"]  c #525A5C",
"[  c #5A5959",
"{  c #6A564A",
"}  c #775B49",
"|  c #6A5E56",
" . c #665D59",
".. c #6D564D",
"X. c #6D625B",
"o. c #71655D",
"O. c #76655C",
"+. c #7C604B",
"@. c #4D5B61",
"#. c #535D61",
"$. c #595F60",
"%. c #4E6269",
"&. c #546164",
"*. c #53646A",
"=. c #5B696C",
"-. c #596468",
";. c #5D6C72",
":. c #5E7078",
">. c #646C6D",
",. c #6B6666",
"<. c #746562",
"1. c #756B63",
"2. c #796E66",
"3. c #796F68",
"4. c #756967",
"5. c #7C736C",
"6. c #76706E",
"7. c #626E72",
"8. c #647175",
"9. c #6A7578",
"0. c #7D7671",
"q. c #787978",
"w. c #8B391B",
"e. c #863F25",
"r. c #874A26",
"t. c #984C25",
"y. c #89573A",
"u. c #95583A",
"i. c #95522D",
"p. c #A25931",
"a. c #9A613B",
"s. c #AB673A",
"d. c #B2693A",
"f. c #BA723E",
"g. c #84471E",
"h. c #C96C3A",
"j. c #875D48",
"k. c #975B44",
"l. c #87654B",
"z. c #99674A",
"x. c #8A6854",
"c. c #9A735A",
"v. c #936F56",
"b. c #A66B47",
"n. c #AA724B",
"m. c #B6764A",
"M. c #A76D54",
"N. c #A6785A",
"B. c #B37956",
"V. c #B46949",
"C. c #84756A",
"Z. c #9A7A65",
"A. c #817771",
"S. c #847B75",
"D. c #897E76",
"F. c #867E78",
"G. c #897F78",
"H. c #A87A64",
"J. c #BC7A66",
"K. c #AA5846",
"L. c #C17B49",
"P. c #C47658",
"I. c #CB7467",
"U. c #BA8159",
"Y. c #8C8077",
"T. c #8C827A",
"R. c #87817B",
"E. c #92867D",
"W. c #93867D",
"Q. c #A8826A",
"!. c #B78568",
"~. c #A88773",
"^. c #B88B74",
"/. c #B9947C",
"(. c #AC907C",
"). c #C58456",
"_. c #C5824F",
"`. c #C98969",
"'. c #D59566",
"]. c #C6967B",
"[. c #D49977",
"{. c #CA8E71",
"}. c #D9A27C",
"|. c #E7AA7A",
" X c #777E81",
".X c #807F81",
"XX c #798287",
"oX c #768A92",
"OX c #848789",
"+X c #958B82",
"@X c #87959B",
"#X c #848F95",
"$X c #AD9485",
"%X c #B79984",
"&X c #AE8F82",
"*X c #BEA28E",
"=X c #BAA094",
"-X c #939FA2",
";X c #8B9EA5",
":X c #96A2A5",
">X c #96A4A8",
",X c #98ADB4",
"<X c #99AEB5",
"1X c #A8B7BA",
"2X c #CA9985",
"3X c #D49C83",
"4X c #C9A38C",
"5X c #D8A78A",
"6X c #C7A793",
"7X c #DAAC97",
"8X c #DAB29B",
"9X c #CBB19B",
"0X c #E1A98B",
"qX c #E4B59B",
"wX c #E7B59B",
"eX c #E4AB93",
"rX c #D7BCA9",
"tX c #E7BCA5",
"yX c #F2BCA8",
"uX c #DCC2B0",
"iX c #ECC3AC",
"pX c #E7C1A9",
"aX c #F1C5AE",
"sX c #EDC6B2",
"dX c #EDC9B3",
"fX c #E5CAB8",
"gX c #F2CBB7",
"hX c #EFD2BD",
"jX c #A6BDC5",
"kX c #AEC5CE",
"lX c #CAD7DB",
"zX c #C0CED3",
"xX c #E8D2C2",
"cX c #C7DCE5",
"vX c #DBEDF5",
"bX c #D5E7F0",
"nX c #D4E6EF",
"mX c #E9F6FF",
"MX c #EDFAFF",
"NX c #E4F3FB",
"BX c #EAF6FB",
/* pixels */
"O O O * O O o + + O O O O o o O o X X @ @ & 2 8 8 8 2 & 2 &               + + o . . o o o o O o D X.X.X.| | | | | X.X.X.X.X.X.X.",
"O O O + + + o * O o O O O o o o o o o o o X O O % & & w z N M V V B J K q %   + X X . + o o .   D o. . .X.X.X.X.X.X.X.X.X.X.o.X.",
"e ; ; e y e * O * o o O O o o o O o o o X X X o     w K Z.~.l.l.N.z.H.Q.N.v.F 3   + X X . X X . D X.| | X.X.X.X.X.X.X.X.o.o.o.o.",
"Y U ~  XcXcX,X= * O O O O O * O + O o o @ @ o   i x.v.c.H.x.L L G Z y.l.N.N.Q.z.Z -   O O O O . D X.X.X.X.X.X.X.X.o.o.o.o.o.o.o.",
"Y U E #.;XjX#X= e @ @ @ O = ) ) . * O O @ O $ Q Z.Z.Q.x.L N z N c v j x H M.Q.N.z.N.M . O O O X Q 1.X.X.o.o.X.X.o.o.o.o.o.o.1.o.",
"U R  . XcXcX1X> r # = - @ ; ) @.. ; % @ @ - x.Q.x.Q.x.N N l z l k k j j j r.b.n.z.z.z.I + o . . Q 1.X.o.X.o.,.o.1.o.o.1.1.o.1.1.",
"U ^ ,.#XNXMXlXe t @ = - @ ; oX8.  ; % & @ 9 H.Z.Z.x.F N M N N 6 2 3 d d j j H i.K.l.l.M.{ . * O ! 1.o.o.o.o.o.o.o.1.1.O.1.1.o.1.",
"R ) ,..XvXmXlX8 t & - - # ; kX-X  ; & & $ D H.x.{ Z V l 3 z N N N c z j v 1 # j i.v.y.a.Q.8 + O ! 1.o.1.1.1.1.1.o.1.O.1.1.1.1.1.",
"R ~ 4.OXvXmXlXs y & - 8 & = kX-X  ; % & $ } H.J S G N l N N./.2X].^.!.U.s.H 7 # m y.y.y.c.2   . ! 3.1.1.1.1.1.1.1.1.1.1.2.2.1.2.",
"R / ,.OXvXMXlXs y % - - & * kX-X  ; = & O J v.F N G z.!.8XpXtXwXqX8X5X[.`.U.i.6 k b +.z.l.B r = $.3.1.1.1.1.1.1.1.1.1.2.2.1.2.2.",
"R ~ 4.OXvXMXlXs y & - - & * kX@X  ; % & O I x.N v.4XpXgXiXiXiXtXpXwX0X0X}.'.s.A c j x a.a.E.oX7.q.1.1.3.3.3.2.2.2.2.2.2.3.3.2.3.",
"R ~ 1.OXvXMXlXt u % - - & * kX:X  : % % X ..l.F 8XdXdXiXdXdXsXiXtXtX0X0X}.'.n.G c v j c A } :.;.q.2.3.3.3.3.3.2.2.2.3.3.3.3.3.3.",
"E ~ 4.OXNXMXlXt u & - - & * kX-X  : = % $ } } +.pXiXiXsXsXsXsXyXtXwX0X5X}.'.n.A c x j l A 1.:.#.5.3.3.3.2.3.5.3.3.5.5.3.3.5.5.2.",
"~ ~ 4.OXNXMXlXt y - - - & , kX-X  : % @ O V { l.dXdXhXhXgXgXgXsXaXwXqX0X}.U.d.H v j j j A v.;.( 0.5.5.5.5.5.5.3.5.3.5.5.5.5.3.C.",
"~ ~ 4.OXvXMXlXt u - - - % * 1X:X  : = $ # & V } 8X4X7XsXxXgXfXsX0X^.Q.!.{.m.s.H w 7 6 6 v l.;.' 0.5.0.5.5.5.5.5.5.5.5.5.5.5.5.5.",
"_ ~ <..XvXMXlXu y - - & % * jX:X  e & O @ @ Q I 6X2X].4XtXtXtX3XU.Q.Q.^.U.s.s.r.7 2 w 7 j F =.' 0.0.5.0.0.C.0.5.5.5.5.0.C.0.5.C.",
"` E <..XbXmXlXt u - - - & @ jX:X  s % O % X ` O.qXtXtX7XrXyX2XN.2X7XtX2X!.s.f.p.4 $ 2 1 v +.%.' q.0.0.0.0.0.0.0.0.C.0.0.0.0.5.5.",
"` E <..XbXmXlXt u = = - & O <X>X  e % O % . | ^.]...x.4X8XgXM.j.!.j.Q x.k.u.m.f.k $ c b M -.( ' 0.S.S.0.0.C.C.0.C.0.C.0.C.S.5.S.",
"` E <..XvXMXlXu y - - - & o <X>X  e % O O O { !.8XH.&X8XtXyXK.j.2X&XZ.^.M.U.).f.j k A n / / / ' 0.C.0.S.C.q.0.S.0.0.C.0.S.C.S.C.",
"` W <..XbXmXlXu u % & & & . ,X>X  : , O @ O [ 2XsXsXxXrXtXwXB.K.6XrX8X5X0X5XL.d.v n p.H *.&.( ' F.S.S.0.S.q.C.C.S.S.0.F.0.0.S.S.",
"_ W <..XbXmXlXu y & % = & o <X>X  : % O O o _ =XyXgXfXyXyX0XP.P.{.qXqXqX0X'.L.p.A n w.j.%.;.%.' F.F.q.S.S.C.q.S.S.0.S.0.S.0.S.S.",
"_ W <. XbXmXlXu y % = = & o <X>X  : % O @ o [ $XyXyXyXyXeX0XL.V.[.wXeXeX[.P.d.r.t.t.t.o.*.8.%./ q.F.F.C.q.F.S.C.S.S.S.S.S.S.S.S.",
"_ E <. XbXmXlXu y % % & & + <X>X  ; O O @ o _ +XwXyXyXwXyX0XP.p.V.yXeX3X`.f.p.n p.h.z.%.=.8.%./ F.F.F.S.F.S.S.F.S.0.S.S.S.S.S.0.",
"_ E <.S.nXmXlXu r % % & % + ;X:X  : % X O . [ W.eXyXwX3X2Xk.m e.e.3XeX{.m.p.p.m t.k.*.*.=.8.&.' F.F.F.F.F.C.F.q.S.S.S.S.S.S.S.S.",
"_ W <.q.cXNXzXt r # % % & O ;.>.. ; O O @ . ` A.4XeXwXwXH.k.Z b j.J.2XJ.u.p.p.x F %.%.*.8.8.&.' R.R.S.S.S.S.S.S.S.S.S.S.S.C.F.S.",
"$.T X.6.cXmX1X> r # % % % O ( #.. ; @ X O . ` 6.4X7XU.z.Z k.j.n r.k.z.J.M.K.g.c &.&.%.=.8.8.&./ R.Y.R.Y.R.R.S.S.S.S.S.S.F.F.F.F.",
"[ E <.,.,XjX@X; e @ % % @ @ #.$.. ; O O O . [ >.(.8Xz.r.k.J.K.b m m Z B.M.i.n c %.%.%.=.8.9.*./ T.T.R.R.Y.S.S.R.F.F.S.F.Y.S.S.F.",
"[ T ,.,. X.X9.8 e , # , @ O #.$.. ; % O @ . ` 6.| 5XtX2XI.3XI.K.K.j.2X{.i.t.m F *.*.*.;.8.9.=.( T.T.Y.R.R.S.S.S.F.S.F.F.S.S.Y.S.",
"#.T <.,.7..X>.e : @ % @ @ O #.#.. ; @ X @ . ! q.Q c.qXqX{.I.I.V.M.Q.!.s.r.m v } ( ( ( &.=.=.( ' E.E.R.R.S.R.Y.Y.S.Y.Y.S.S.Y.S.Y.",
"[ T | ,.9.#X,.: > @ @ % O * ] #.o = O O X . ` q.' K 4XqX7X!.H.H.N.N.z.A x 5 i.l.R E ^ ( -.=.( ' R.E.T.R.Y.R.S.R.Y.S.S.Y.Y.S.Y.S.",
"#.T  .,.>.-.@.> > @ @ @ O O ] ] o ; O O @ . ! q.#.W N.tX7X5X].{.].!.y.b 6 b L.l.U R ^ ] >.9.&.' E.E.T.R.Y.Y.R.S.S.Y.S.S.Y.S.S.Y.",
"#.T <.,. X X7.: > @ @ @ O O @.] . = @ O O . ! 6.)  .K ].iXtXqX5X[.b.A 6 v s.U.l.U E D $.>.9.%.( E.E.T.T.R.R.Y.Y.R.S.Y.Y.S.Y.S.Y.",
"#.T ,.6.#X#Xq.- > @ @ @ O O @.' O = O O O . ! 0.' Y.} S /.eX7X[.z.b 6 k a.m.m.b.B R ^ &.8.9.&.' W.W.T.T.Y.Y.F.F.Y.F.Y.Y.S.S.Y.Y.",
"#.U  .,.@X X>.: = O , @ O O ' @.X = O O O . _ 6./ { Y.Q.G P y.G j 6 k y.m.m.m.U.A S ^ ( 8.9.&.' W.W.T.T.F.Y.Y.F.S.Y.S.Y.Y.Y.Y.S.",
"$.U 7. X>X@X9.> = @ O @ O , @.@.X = O @ O . _ q.&.! Q.pX4XQ.x.P N b a.m.s.f.U.L.g.w F =.9.9.&.' W.W.T.T.F.Y.F.Y.Y.Y.S.S.S.Y.Y.Y.",
"~ U #.*.;.8.,.: = O @ O O O E ~ O = O X @ * T / &.I Y.hXfXhXhXuX/.v.b.n.U.U.U.f.S M A p | { E ^ W.W.W.T.Y.Y.Y.F.Y.S.Y.Y.Y.Y.S.Y.",
"@.@.@.#.;.;.=.: = @ O @ $ , *.) X * O * : @ - { Z.{ I 9XhXfXfXuX9X(.Q.!.Q.U.U.S q S A P { D E ] W.W.W.Y.Y.Y.F.Y.S.Y.S.Y.Y.S.Y.Y.",
" XoXoX@X@X-XXX: = O O @ o >  X*.X ; > > @ M (.uX+.I S P *X9XuXfX9X*X}.9X/.U.I i M v A a.).P & D -XW.Y.Y.Y.Y.Y.Y.Y.Y.Y.Y.Y.Y.Y.Y.",
" X X X X XXX9.> = O O @ O =  X#.% > % % q (.rX/.x.I B I F S v.6X(././.+.I S S I c g.b.n.'.'.L X B W.W.Y.Y.Y.F.F.Y.S.Y.S.S.Y.Y.Y.",
">.>.>.>.>.>.[ > = O O O O ; T i % * @ & P ~./.Y.Q.+.I M D { F I I G P S S S P v i.'.!.n.'.[.K @ * u Y.W.T.Y.Y.Y.Y.Y.Y.Y.Y.Y.Y.Y.",
"p p Y p Y Y p % = O O ; 8 e # < @ @ , O Q 6X6Xx.Z.9X^.x.....z ..M M P F c w G n.}.|.Q.U.|.!.8 @ & $ q { D.W.Y.D.C.Y.Y.Y.Y.F.Y.Y.",
"U U R E E ^ U = , ; 8 8 3 < = < % O @ O $ ..rXW.$XxXrXxXrXH.x.K S P P M K ~.8XtXtXrXQ.U.^.i O % @ $ 5 0 9 Q C.W.Y.Y.Y.Y.Y.Y.Y.Y.",
"U _  . . . .` - e 8 3 < 3 < < < # $ @ O O . a } v.rXxXxXfXuX6X6X/.(.Q./.uXhXdXsXrX*X+.S # $ & @ X d g 4 3 0 7 V 2.T.T.Y.Y.Y.Y.Y.",
"R ` O.| <.<...s 8 # < 4 3 < 3 3 < # # @ O %   a 8 q Q ..x.~.&X%X(./.9X9X%X(.~.x.F S i X = @ O # g f 4 4 7 f f 1 & S 5.W.Y.Y.Y.Y.",
"T ` O...O.<.i # @ < < @ # 3 3 3 3 < 3 < # @ + B i o O $ @ # & # * - 2 - & & $ $   F 8 $ O @ 4 g 5 # # 2 f f j 4 7 0 7 { W.T.Y.W.",
"T ` O.X.O.i < # < # O @ O < 3 < 4 < h 4 3 3 < i q O - > - - - = - - % & & & = O a M   # 5 h 5 4 3 2 # 6 5 d 0 6 g d 6 1 I W.Y.Y.",
"W ` <.<.p < 3 < 3 @ @ % @ @ 3 < 3 3 < g 3 @ < 9 V 0 9 3 8 8 8 & % & @ @ @ @ X C F 1 5 5 4 3 3 # & 2 4 5 4 6 6 7 7 7 6 6 7 I W.W.",
"T ` <.D @ 4 # # @ # 8 < @ O < < < 4 < g 3 @ # $ { C h g f g g 9 2 w 7 7 d 5 N I 1 7 5 4 3 4 2 @ 2 4 f 5 3 d 7 2 3 7 7 7 7 7 2.W."
};
