/* XPM */
static char *_130f4c8771442ad8b01a0ca211fca15Xyf1GxndR41LEz77[] = {
/* columns rows colors chars-per-pixel */
"64 64 2 1 ",
"  c gray12",
". c #323333",
/* pixels */
"      ..  . ...... ..     ... .. .....        .  ..  .  ..      ",
".       .   ....   ..   ..  . ... .. ...    .   .  .   .       .",
"      . .   .. ... .. .         ..       . .   .  .    . .      ",
"       ....... ...  .       .   .. .          ...  . ....       ",
"       . .    ..  .            . .           .  .     . .       ",
"           .   . .                       .    . .   .           ",
"     . .  .. ..                . .               .. ..  . .     ",
" .  .      .   ... . .         .            .       .      .  . ",
".         .    . . ..            ..        .. . .    .         .",
".   .   . .  .  . .       .        ..        . .  .  . .   .   .",
" ..        .  . . .       .  .  .      .     .   .  .        .. ",
"  ..    .      ... ...          .     .  .. . ...      .    ..  ",
"   .            .  ...   . .         .     ..  .            .   ",
" . .            ........   . . .   ..   . ... ..            . . ",
".  . . .   .   ... ...                  .  ..  ..   .   . . .  .",
"  . ...     . . . ....  .  ..     .    .   . . . . .     ... .  ",
"     ...      . .....  .. .             .      . .      ...     ",
"  ..     . ..   . .   ...    .       .       .     .. .     ..  ",
". .                . .... .  ..  . .   . .. .                . .",
"...  . .    .   ..  ...  . ... .   . ... . .  ..   .    . .  ...",
" .     .    . .    .  ... ..         .  .        . .    .     . ",
" .. .  .   .  .     . ..               .   .     .  .   .  . .. ",
"   . .   .   .  .    .  . .    .     .         .  .   .   . .   ",
".. .  .   . .  ..  .           .   .           ..  . .   .  . ..",
".. .     ..     .    .                      .  .     ..     . ..",
"   .   ..  .  ... .   .          .        ..  ....  .  ..   .   ",
" .    .  . ..                                      .. .  .    . ",
".. .  .     ....     .     .   .       .  .   . ....     .  . ..",
".. . ..  .  .            .    .  .. .  ..    .     .  .  .. . ..",
"..  .  .     ....  .                 ....   . . ...     .  .  ..",
".     . .  ..   ...   .             .  .  .....    .   . .     .",
".  . .....  .     .            .     .   ..  ..    .  ..... .  .",
" . .....      .   . .. .                .  . .   .      ..... . ",
". . .    .   ..  .       .    . .  .  . ..    ..      .    . . .",
" ..    ..     ...  .. .. ..  .          .. .   . .     ..    .. ",
"  . .  .        . .. .  .     .  .   ..    . . .        .  . .  ",
"   ..  ..   ..      ... . .. ..  . .  .                ..  ..   ",
" . ...  .         ..  . .  .         .. .    .         .  ... . ",
"  .  .  . .    ..    .  ...    .               .       .  .  .  ",
"    . .. .       ...    .    .         .   . .          .. .    ",
".  .... .. .       ..     .     .          .        . .. ....  .",
" .... . . . . .. ..            .  .          .   .   . . . .... ",
"...    .. .     ...    .     .        .  .   ...     . ..    ...",
" ..   . .. .  ..    ... .     . ..  . ..        ..  . .. .   .. ",
" . ..    .. ..       ...               ..         .. ..    .. . ",
"..   .    .. .   .  .        .   . .    .     .   . ..    .   ..",
"         ..... .  .     . .             .    .  . .....         ",
"     .     .... . .  ..  ..               .  . . ....     .     ",
"     ....   ..   . . ..  .  .         .  .. . .   ..   ....     ",
"   ... . .. . . .. ..                      .. .. . . .. . ...   ",
"      ..  .. .... .   .                 ..   . .... ..  ..      ",
"   . .....   . .  ....         .          ....  . .   ..... .   ",
"  . .   .  .   ... .. . .   .          . . .. ...   .  .   . .  ",
"      ..  . . . .. .     .    .     . . .  .. .  . . .  ..      ",
" .    .    ..   ...   . .         .  .   .. ....   ..    .    . ",
"       .. . .     .              .       ..   .    . . ..       ",
"         ... . . . ..   .     .   .    .    . ... . ...         ",
"  . .   .    .   . .. .               .  . .. .. ... ...   . .  ",
"  .. . .... .  . . . . .              .   . . . .  . .... . ..  ",
"  .. .. .  .        . .               .......       . .. .. ..  ",
".  ...   ..             ..   .  ..  . . .   ..  .    ..   ...  .",
". .  . ..  .. .  .   .    ..             ..   .  . ..  .. .  . .",
".......  .  .   ....  .     ..  . .      .. ....  ..  .  .......",
".....  ...       . .  .   . .. . .. .. .........  .. ....  ....."
};
