/* XPM */
static char *df80d7e6193d4b2d82da387f9dbf735bOzfmIWXSgyS8YsOI[] = {
/* columns rows colors chars-per-pixel */
"64 64 2 1 ",
"  c gray38",
". c gray48",
/* pixels */
" .. .  .     .    .. .  .  .    ..                     .   .  . ",
"              . ..... .          .. ...                    .. . ",
"   .           .  ..      ..      .   . ..    ..    ..   . . .. ",
". .  .  .     . . .            ...  . .                    .  ..",
"        ..  .       .   .      .. .    ...             .     ...",
"  .  .......    . .  .. .      .    ... .    .     .      . ....",
"    . .  .   ..   .  . .   .   .. . ... ..       . .  .     ... ",
"    .  .  ...... . ....  . ..  . ....... .  .       ..      . ..",
"..  . ...   ....  .... .         . . ..  ..        .  .. . .  ..",
".   ...  .. ... .   ..  .  .     .  .. .     . ..... ..    . . .",
"  . .. ......  . .  ...           .. ...       .  .. .  .. .....",
" .   .   ... ...   ..  .           .... .   . . .       ... ....",
"    . . ...... . ...  .   .             .   ...         . ......",
"     .. ..........  .  .  .  .       ... .....   .  .. .      ..",
"      .... .. ..       .               ......     .     .. .  ..",
"..       .. . . .       .     .    .  ....         ...     ..  .",
" .          . .  .         .     .  . ..... ..    ..      .   ..",
"  .      ..   .......    .       .   .. .  .    .    .      .. .",
"      .......... . ..         . .. ... ...    ..       .  ..  ..",
"        .    .. .     .  .     ........ ... .   .        .   . .",
" .  . .  ..  .            ...    ......     ...  .  ..  . . . ..",
"    . ..    .  ..  .   .          . .     . ..  .  ..  ..  .....",
"       ...   .    .              .  . . . . . ..             .. ",
"        ..  .         .   .       ......   ..       .      .....",
".      ...      .          .    ...     . .   ...    ..   . .. .",
"     . .       .      .       .   .. .......... .  .   .  ......",
"      ..  .  .        ..  .   . .    .  ..    . .    .  .   ....",
" .      ...        .               .... .       .   . .   .... .",
"       ..      .  .    .             .. ..  .      . . .  .  . .",
"  .    .. .          .   . . ..        .    ... ....     . .  ..",
" ..                .     . . .. .    ..   .       .            .",
".     ..  . .       .     .... .     .... .      .    .       ..",
"     .     .         . ......  . .... . .    .   .   .   .   ...",
"        . .   .          .. . ..  .. .......   .         . .... ",
".     ... .  ..        ... .   . . ..    ..  .      .    .  ... ",
".   .......      . .  .    .. .    . . .. . .               .  .",
"     .    ...         ..  ...    .  .. .. ..        .     ..  . ",
"     .  ...       . .. ....  .   ... ...  .. .           .  .. .",
"     .  ..  .  ..     . ..    .    . .  .   . .       .   . . ..",
"   .    ..    .  .   . .  .. .     ...  .        .     .   .  ..",
"          .. ..  . .. .   . . .    ..  ..  .          .  ....  .",
"  . .  .. .. . . ..  . .   .               . .     .  .  ..   ..",
"  .     . .    .   . .. ...  .  .       .       ..   .   ... ...",
" . .   . ....   .....      .   .          . ..  ..   . ....  .  ",
"           .  .....         .  .   .   ..   .     .. ... .  .. .",
"     .       ......   .   ..  .         .... ..    .............",
"  .     ...... .   . .  .    .       . .    .        . ..... ...",
"           .   .       . . ..  ...         .      ..  .    .....",
".         . .  ..          . .  .      .  . .   .    .  ...... .",
"  .             .    . .. ..   . ..   . .      .    ... . . ... ",
"     .         ...    . .... ... .    .  .  . . .   .    .. ....",
"    .   .. .           .  . .....    . .  . ...         . ......",
"             . .. .    ..  ...  ..     ..     . ..      ... ....",
". .     .  .       .. . ..       .  . ..  . .     .. .  .. .....",
"             ..   .. .       ..       . ..    ... .. ..    . . .",
"              ..   .. .   .. .  . .   . ...  .   . .  .. . .  ..",
"           .  .   ...  ... .  .       ..  . . ...   ..      . ..",
"                    .  .     ..     .            . .  .     ....",
"  .          .    .  . ...  .  ..            .     .      . ....",
"..          .   ... .  ...        ..                   .     ...",
"...  .        ... ......       . .  . .                    .  ..",
".  .           .  .... .  ..      .      .    ..    ..   . . ...",
"              .........          .                         .. ..",
" .. .  .     .    .. .  .  .    ..                     .   .  .."
};
