/* XPM */
static char *e3fdf2bd139a4d4ca2a6690630a5f195FZSFlXrTs7XXMq4b[] = {
/* columns rows colors chars-per-pixel */
"16 16 8 1 ",
"  c #AA8B5A",
". c #BB9765",
"X c #96784C",
"o c #B39260",
"O c #7E623B",
"+ c #6B5430",
"@ c #755C36",
"# c white",
/* pixels */
" .X..oooooo...  ",
"  X...   ooo    ",
"..X.  ..........",
"OOO+@@O@@@++@OOO",
"  ..    ..X..o  ",
"    . ooo.X.... ",
" oooo.....O.o   ",
"++++++++OOO+++OO",
"o.oo..X.........",
"oo.oo.X.ooo     ",
"   ...X.oo    ..",
"+++OOOO++@@@OO++",
"...oooo...  o.X ",
"o.o        o.oX ",
"   ........oooO.",
"++@@@@OO@@@OO+@@"
};
