/* XPM */
static char *wood_resized[] = {
/* columns rows colors chars-per-pixel */
"64 64 30 1 ",
"  c #67512E",
". c #69522E",
"X c #6D5531",
"o c #755C36",
"O c #785D37",
"+ c #775E38",
"@ c #795F39",
"# c #7D633B",
"$ c #81663E",
"% c #84683F",
"& c #866A41",
"* c #8A6E44",
"= c #8E7147",
"- c #8F7348",
"; c #907247",
": c #927549",
"> c #96794D",
", c #997B4E",
"< c #9D7E51",
"1 c #9F8052",
"2 c #A38355",
"3 c #A88758",
"4 c #A78858",
"5 c #AC8C5B",
"6 c #B18E5E",
"7 c #B2915F",
"8 c #B59361",
"9 c #B99664",
"0 c #BC9866",
"q c #BF9A68",
/* pixels */
"455789852<<25890009888778788878887878878778890900000008875544545",
"455789852<,25800009988877877878778777777878899000990000875544445",
"455788852,,25890099998877777777777777887788889990899988875555455",
"555577742,,25800000998887777757777777778778889988888887755545554",
"45557552<<<35800009099877555555555577788787788888777577555455454",
"54455552<<<<5800000909987555555555557787888888877555555555554455",
"55575552<<<<3800999999887555555557558888888888885555555555555555",
"77777754<<<<6800998988888787877777888888980888888787777777777777",
"9699990<<<<<8900887777888898899888990090000909099898978988888889",
"99999996<<<<6898555555558899989889998899800898899999999908880980",
"6699666<<,><<363442442445755875775857777575777757777777775777787",
"<<6<<<<<,;=;,,<,>>>>>>>>14422211211411111111,1,1<141111144422144",
",;::::;;&&&$&&&&&&&&&***-->------*--*******&&&***===-->>-1->->>-",
"**%%&&&%%$$$$OOO#+#######&$$&#######$###+ooo++++@#$$$&&&$&&&&&&&",
"%%%%$$%&&&&$$OOO########$$$$###########+ooooo+++###$$&&$$$$$&$$&",
"**;;===;;;;=**&&&&&&&&*****-*&&**-----*&##+##&&&**==----*--***-*",
",,<,,,<<22421111>>>>>>>>>>>>>->><<<<<<<,=&*::,<<1111<1<<,>,>>,,,",
"<<3<<3335757757542221441444414446666966<<>:<<5667766655444414141",
"6<63355688898088555555445555555789000083<<<<68000099977755555554",
"66665556789988888777555555555578890000963<<<690qq009999987775555",
"5555555557777777888755557777855888900086<<<<59000000099999977555",
"54555535555555778888755577758888888890833<<358000009099999877554",
"5554455555555577808877577888888888800085<,,<58000990999999877554",
"5555666675757577800888778899989998800085<:><58000099998888777555",
"555577777777777888009999999009090000q08<,--,480q0988888877775555",
"44555577777775777887899999999999080q000<>&&:28999877555557545545",
"114411554455444444555555557555556860896<-&&-<4665514141411111114",
"1:::11111-11>>11>>>1>11111111111<<<<<<<:&$#&=><>111--1--1>111111",
"##########&#*&&#&&&&&&&&*&&&&&**;:::,:;*&###$&&&#$$$##$$&***&**-",
"ooo+##++oo++oo+oooo+++++++oo+++#$%%*&&%%$##++++oooooo++##$&&$$$$",
"o#+#++++ooo+o++oooo+++++oooooo+#$%&&&&%&$$&$#++++++o++##$&&&&&&&",
"###%#*#*#*&#&#&&&&&&&&$##++##&**;;::::::-1---&&&&&&&&&&*-->----1",
">,,,,,,,,>,,>>><<,<<<,,:;%%*:,<<<<<<<<<<441111111111111111141142",
"44555677553535366666666<<>><236669660990777775575555755588778877",
"777979997777777769900976<<<257qq00999909999999999988999999999999",
"7999999009q7q7999900q0762<<<6q7qq0090900090998988899989888888898",
"99799999999979797990qq762<<267qq99999999998888778877775777777777",
"7777977999999777787999962<<267qq99696966888775555555555555565555",
"777777799997797677999976<<<<679996966696777755455455555556555555",
"77777777779999099999qq753<<3670098699886777555555555555566778778",
"7777557766979909q900qq9621,2670099888887776555555557455678898898",
"5754555466667999990q997311,2770796868766555554455455555688999999",
"11111122<<<<66697777906<1>>1355653334554411111111111114455667557",
"::1-1-*1:,<:<<<3<3<3<<<<:==:>,,,,,,<<><>1>,,-11111>1>1>,,11,<<<<",
"####+###$$$%=:::::::>>:=%%%%%%%%&%&&&***&&&&&&&*&***==***&*&&&&*",
"+ooooooo.$$X$%%&&&&&%%%%%%%$#o#oOOO@#@#########$$&&&&$$$@@++++++",
"++++++++$X$$$%%%&%%&&%%&%%%####oooOO##########$$&&&&&&$#@ooXXooo",
"&***#**#%%%%==;;::;;;;;:-:-=%%%%&&&**==*&*&&&&&***--::-*$#@##$#$",
"111111111111111111111111111121111111111111>>>:>>1111111,-&&**---",
"57557555557554455555355555557756577777552412224444567774<>->1111",
"998909009998877777666777776707707997709754545577788899851,,11155",
"9000000000998777776677777777770799070777755555778880088521<15557",
"9800000009877775665656667577777777777777555577778090998511111555",
"8888089088875555555536335555555555555555555577778999985511-11555",
"7788880887777555565555665555555555575575555777779999885511-11557",
"777888888777777777777766777777777777777777779799999998711*111577",
"75577775775788889998899979799797709979977999797989999872-*-11789",
"55545555554588809099999009909999797999999979777787888751-&&>1799",
"2422221211115777066666696696777777776677766675555544542,=&&-1478",
"---->>*111111112<<<<<<<<<<<33<2222212<22111121<111111,:=$##&:111",
"&#&##$$&&****1&*%%%;=;%%,,::::::;;=;========;;;;---=&&%#####&==-",
"oooooo++++######$$%$$$%$%%%%%%%%$$###$###$$$%%%%%&%###ooXoo#####",
"X..XXXXXooooooooX$X$$X$$$$%$$$#OOOooooooOOOO###$####oXXXXooooo#o",
".     XXXXoXooXo$XXoXXXXXo$$@@OooooXoXooXoXoOOO##o#XX..XXoooooXX"
};
